<?xml version="1.0" standalone="no"?>
<!DOCTYPE svg PUBLIC "-//W3C//DTD SVG 20010904//EN"
 "http://www.w3.org/TR/2001/REC-SVG-20010904/DTD/svg10.dtd">
<svg version="1.0" xmlns="http://www.w3.org/2000/svg"
 width="1024.000000pt" height="1536.000000pt" viewBox="0 0 1024.000000 1536.000000"
 preserveAspectRatio="xMidYMid meet">
<metadata>
Created by potrace 1.16, written by Peter Selinger 2001-2019
</metadata>
<g transform="translate(0.000000,1536.000000) scale(0.100000,-0.100000)"
fill="#000000" stroke="none">
<path d="M413 13565 c0 -8 4 -12 9 -9 5 3 6 10 3 15 -9 13 -12 11 -12 -6z"/>
<path d="M876 13568 c3 -5 10 -6 15 -3 13 9 11 12 -6 12 -8 0 -12 -4 -9 -9z"/>
<path d="M4966 13572 c-3 -5 1 -9 9 -9 8 0 12 4 9 9 -3 4 -7 8 -9 8 -2 0 -6
-4 -9 -8z"/>
<path d="M5434 13572 c4 -3 14 -7 22 -8 9 -1 13 0 10 4 -4 3 -14 7 -22 8 -9 1
-13 0 -10 -4z"/>
<path d="M7434 13572 c4 -3 14 -7 22 -8 9 -1 13 0 10 4 -4 3 -14 7 -22 8 -9 1
-13 0 -10 -4z"/>
<path d="M7533 13565 c0 -8 4 -12 9 -9 5 3 6 10 3 15 -9 13 -12 11 -12 -6z"/>
<path d="M9286 13572 c-3 -5 1 -9 9 -9 8 0 12 4 9 9 -3 4 -7 8 -9 8 -2 0 -6
-4 -9 -8z"/>
<path d="M10013 13565 c0 -8 4 -12 9 -9 5 3 6 10 3 15 -9 13 -12 11 -12 -6z"/>
<path d="M6168 13563 c7 -3 16 -2 19 1 4 3 -2 6 -13 5 -11 0 -14 -3 -6 -6z"/>
<path d="M2687 11673 c-10 -9 -9 -33 1 -33 4 0 8 9 8 20 0 23 0 22 -9 13z"/>
<path d="M6464 11630 c-29 -11 -59 -54 -124 -170 -97 -175 -192 -330 -204
-330 -10 0 -88 30 -172 65 -56 24 -309 84 -431 102 -171 26 -628 25 -803 0
-198 -30 -506 -113 -607 -165 -54 -28 -69 -24 -122 31 -29 28 -77 89 -107 135
-30 45 -57 82 -60 82 -3 0 -3 -3 -1 -7 50 -86 140 -249 146 -266 7 -16 4 -28
-12 -44 -25 -28 -13 -29 30 -3 141 86 468 186 739 227 167 25 596 25 774 0
201 -28 494 -108 601 -163 23 -12 28 -11 41 4 29 35 118 181 191 312 90 162
106 180 156 180 46 0 94 -45 94 -87 0 -26 -75 -163 -113 -208 -10 -11 -50 -76
-90 -145 -84 -143 -78 -135 -85 -128 -5 5 8 34 36 78 9 14 30 50 46 80 16 30
35 64 41 75 20 34 42 96 32 90 -11 -7 -40 -64 -40 -79 -1 -6 -12 -24 -26 -41
-17 -21 -23 -24 -18 -10 4 11 11 26 17 33 5 6 6 12 3 12 -4 0 20 51 54 113 88
166 73 164 -24 -4 -47 -79 -114 -183 -150 -232 l-66 -87 55 -25 c52 -23 238
-143 280 -182 11 -10 43 -37 71 -61 171 -141 354 -428 437 -687 58 -177 58
-183 10 -145 -14 11 -21 20 -15 20 16 0 -62 219 -119 333 -61 121 -132 228
-208 317 -73 84 -137 150 -146 150 -7 0 -85 58 -95 71 -20 24 -279 184 -286
176 -3 -3 25 -21 61 -42 155 -86 350 -258 451 -396 56 -76 63 -91 19 -41 -20
24 -40 41 -43 38 -2 -3 1 -12 8 -21 7 -9 10 -18 6 -22 -3 -3 1 -15 11 -25 9
-10 13 -18 10 -18 -3 0 -49 42 -102 94 -94 93 -211 182 -343 262 -70 43 -249
127 -292 138 l-25 6 25 -11 c96 -43 310 -154 333 -173 l28 -22 -36 2 c-20 2
-40 6 -44 9 -5 2 -11 -1 -14 -8 -6 -16 -87 -22 -87 -7 0 7 -5 8 -12 3 -17 -11
-68 -12 -62 -1 6 10 -38 8 -86 -3 -19 -4 -54 -10 -77 -13 -23 -3 -51 -9 -61
-15 -11 -6 -22 -7 -26 -4 -3 3 -6 1 -6 -6 0 -7 -5 -9 -10 -6 -6 4 -18 1 -27
-7 -14 -11 -16 -11 -9 2 4 9 1 8 -7 -2 -8 -10 -22 -18 -31 -18 -9 0 -16 -4
-16 -10 0 -8 83 -16 113 -11 5 1 6 -3 2 -8 -3 -6 -12 -8 -19 -5 -7 3 -20 -2
-29 -10 -19 -19 -34 -20 -39 -4 -6 17 -58 18 -58 1 0 -7 -5 -13 -11 -13 -5 0
-7 6 -3 13 6 9 4 9 -8 -1 -9 -7 -20 -12 -24 -10 -5 1 -27 -7 -49 -17 -30 -15
-35 -21 -22 -23 17 -3 17 -5 -5 -20 -12 -9 -27 -17 -33 -17 -5 -1 -19 -5 -29
-10 -14 -6 -21 -5 -24 4 -3 8 -9 6 -18 -8 -11 -15 -23 -19 -46 -16 -18 2 -38
-1 -45 -7 -7 -6 -13 -7 -13 -4 0 4 -7 0 -16 -8 -8 -9 -22 -17 -30 -17 -16 -2
-23 -4 -44 -12 -30 -11 -86 -26 -118 -31 -49 -7 -51 -15 -3 -14 23 0 45 -2 48
-6 4 -3 -3 -6 -15 -6 -12 0 -22 -5 -22 -11 0 -6 -7 -8 -16 -5 -8 3 -13 2 -9
-3 3 -5 -13 -12 -35 -16 -22 -4 -42 -11 -45 -15 -3 -5 -19 -7 -36 -5 -20 2
-29 0 -26 -8 3 -7 10 -11 16 -9 7 1 10 -2 6 -8 -3 -6 -10 -8 -15 -5 -4 3 -10
-1 -13 -7 -3 -11 -9 -11 -26 0 -12 7 -21 8 -21 2 0 -5 -11 -10 -25 -10 -14 0
-25 -6 -25 -12 0 -9 -4 -8 -10 2 -5 8 -10 10 -10 4 0 -6 -12 -11 -26 -11 -15
0 -30 -6 -34 -13 -4 -7 -15 -10 -25 -7 -10 5 -14 3 -9 -5 5 -7 0 -9 -14 -6
-12 4 -20 2 -16 -3 4 -8 -43 -15 -70 -10 -4 1 -13 -3 -20 -8 -7 -6 -17 -6 -26
-1 -8 5 -19 6 -24 2 -18 -11 -50 -10 -65 2 -18 14 -53 14 -63 1 -5 -6 -8 -5
-8 2 0 7 -6 10 -13 7 -16 -6 -16 28 0 48 14 17 44 90 40 95 -2 2 -12 -15 -22
-38 -20 -44 -76 -88 -137 -108 -45 -15 -122 3 -179 42 -52 35 -90 111 -86 172
2 28 7 59 11 70 4 11 0 7 -10 -10 -9 -16 -22 -33 -28 -37 -8 -5 -7 -8 2 -8 7
0 12 -13 12 -32 0 -39 18 -94 43 -128 9 -13 17 -28 17 -31 0 -4 -8 -6 -17 -4
-10 2 -18 4 -18 5 0 1 -9 3 -20 5 -11 2 -21 8 -23 14 -2 5 -10 7 -18 4 -8 -3
-20 -1 -27 5 -6 5 -21 12 -32 15 -14 3 -12 5 9 6 45 2 18 22 -32 25 -22 1 -48
8 -58 16 -10 8 -15 10 -12 5 4 -6 -9 -10 -32 -10 -21 0 -38 0 -37 1 1 1 29 13
62 28 33 14 53 25 44 26 -31 0 -270 -113 -344 -163 -44 -30 -64 -35 -45 -12
12 14 10 15 -12 11 -15 -2 -35 -9 -45 -15 -18 -9 -88 -139 -126 -232 -12 -28
-22 -37 -45 -41 -30 -4 -30 -4 -25 36 2 22 9 48 14 57 5 10 9 25 9 34 0 17 90
226 101 235 3 3 12 16 19 29 10 19 10 22 -1 16 -9 -6 -11 -3 -6 9 4 10 7 20 7
22 0 2 7 4 15 4 8 0 12 6 10 13 -4 12 67 119 79 118 3 -1 6 1 6 4 0 3 0 8 0
11 0 34 -145 -175 -205 -295 -40 -79 -115 -281 -115 -307 0 -5 204 -8 465 -6
317 2 465 -1 465 -8 0 -9 -619 -18 -856 -12 -64 1 -73 -1 -94 -23 -51 -54 -50
-28 7 150 63 194 162 383 270 511 24 28 43 53 43 55 0 2 -93 2 -207 0 -178 -4
-196 -6 -123 -12 47 -4 126 -8 175 -8 59 -1 85 -4 75 -10 -8 -6 -17 -8 -21 -5
-4 2 -12 -3 -19 -11 -8 -9 -22 -12 -41 -8 -22 4 -29 2 -29 -11 0 -14 -20 -16
-167 -18 l-168 -2 207 -5 c113 -3 210 -9 214 -13 4 -5 -121 -8 -278 -8 -320 0
-406 -10 -539 -61 -229 -88 -413 -296 -448 -505 -9 -51 -11 -570 -9 -1934 l3
-1865 26 -66 c39 -101 76 -157 153 -235 57 -57 90 -80 166 -117 189 -90 -81
-82 2645 -82 l2410 0 85 23 c131 36 232 93 321 181 81 81 114 138 145 251 18
62 19 155 19 1950 0 2049 3 1932 -56 2053 -77 156 -171 253 -312 321 -158 77
-169 78 -557 85 -319 6 -335 7 -217 15 70 5 224 7 342 4 118 -2 209 0 202 4
-6 4 -27 8 -44 8 -18 0 -33 5 -33 10 0 6 -10 15 -22 20 -15 6 -18 9 -8 11 8 1
-7 6 -35 10 -35 5 -13 7 70 5 90 -3 111 -1 85 6 -19 6 -200 12 -402 15 -348 5
-368 6 -385 25 -17 19 -14 19 392 15 451 -4 471 -7 626 -72 154 -65 273 -158
371 -289 88 -118 118 -186 143 -321 7 -38 14 -57 14 -41 1 17 -6 59 -15 95
-82 328 -406 594 -779 640 -49 6 -245 11 -435 11 l-344 0 -36 34 c-59 56 -191
158 -271 210 l-76 50 50 80 c28 45 71 113 97 151 64 95 140 237 140 262 0 29
-38 73 -76 89 -38 16 -41 16 -70 4z m-164 -520 c-6 -11 -13 -20 -16 -20 -2 0
0 9 6 20 6 11 13 20 16 20 2 0 0 -9 -6 -20z m-261 -409 c88 -45 132 -134 113
-228 -13 -64 -32 -93 -82 -128 -142 -98 -320 4 -320 184 0 52 4 65 33 103 61
82 172 111 256 69z m-2999 -261 c0 -6 -40 -10 -99 -10 -54 0 -120 -3 -147 -6
-27 -4 -46 -3 -42 1 4 4 53 11 110 15 157 11 178 11 178 0z m75 0 c-3 -5 -14
-10 -23 -9 -14 0 -13 2 3 9 27 11 27 11 20 0z m287 -22 c-7 -7 -12 -8 -12 -2
0 14 12 26 19 19 2 -3 -1 -11 -7 -17z m-669 -5 c-7 -2 -19 -2 -25 0 -7 3 -2 5
12 5 14 0 19 -2 13 -5z m-53 -12 c-8 -5 -28 -11 -45 -14 l-30 -6 30 14 c34 16
72 21 45 6z m420 -1 c0 -5 5 -10 11 -10 5 0 8 4 4 9 -3 6 29 10 79 10 47 0 88
-4 91 -9 3 -6 2 -10 -4 -10 -6 0 -7 -7 -4 -17 5 -12 3 -14 -7 -8 -8 5 -11 4
-6 -3 8 -13 -34 -103 -46 -96 -4 3 -5 -2 -2 -10 3 -9 1 -16 -6 -16 -6 0 -9 -4
-6 -8 8 -14 -16 -82 -27 -75 -6 3 -7 1 -3 -5 4 -6 -5 -49 -19 -95 -14 -46 -25
-91 -25 -100 0 -43 37 -46 547 -44 398 2 479 0 470 -11 -6 -7 -21 -39 -35 -70
-55 -131 -56 -136 -56 -352 l-1 -205 29 -37 28 -38 -123 0 c-529 -1 -712 -48
-893 -225 -84 -82 -134 -170 -168 -295 -23 -83 -23 -94 -23 -575 0 -482 0
-491 23 -570 13 -43 28 -85 34 -92 5 -7 8 -20 4 -28 -3 -9 -2 -14 3 -11 14 9
23 -27 9 -37 -10 -7 -9 -8 3 -4 10 3 22 -5 33 -24 9 -15 29 -43 44 -60 14 -18
27 -38 28 -46 2 -8 6 -18 10 -21 4 -4 4 2 1 13 -6 17 -4 17 13 -4 11 -12 17
-28 13 -34 -3 -6 -1 -7 5 -3 6 3 38 -12 72 -33 69 -45 132 -71 253 -103 71
-19 106 -22 262 -22 99 1 188 3 198 6 41 10 42 18 48 346 5 305 6 320 30 388
54 153 145 262 273 324 145 71 151 72 806 79 623 8 626 8 769 60 146 54 293
207 341 354 20 64 22 83 29 342 4 138 8 237 10 220 l3 -30 9 30 c6 20 5 32 -4
37 -11 7 -2 12 16 9 5 -1 -1 11 -12 25 -15 19 -18 30 -10 34 7 5 7 10 1 14 -5
3 -6 22 -2 45 4 22 3 46 -1 53 -15 23 -11 78 6 78 10 0 15 10 15 30 0 22 -5
30 -17 30 -17 1 -17 1 0 11 9 6 15 15 12 20 -4 5 -10 7 -14 4 -5 -2 -11 28
-14 68 -4 40 -16 104 -28 142 -12 39 -21 87 -20 108 0 20 -4 37 -9 37 -6 0
-10 4 -10 10 0 6 168 9 445 10 442 0 535 4 535 22 0 5 -5 6 -11 3 -6 -4 -5 2
2 13 11 17 8 34 -15 109 -15 48 -38 117 -51 152 -14 35 -22 68 -18 74 4 6 1 7
-7 2 -10 -6 -12 -4 -7 8 3 10 2 17 -3 17 -11 0 -25 37 -29 78 0 7 -5 10 -11 7
-5 -3 -10 -2 -10 3 0 6 90 10 225 11 240 2 369 -12 453 -49 51 -23 57 -36 5
-15 -20 8 -38 14 -40 11 -6 -5 52 -27 82 -30 32 -4 81 -39 77 -56 -1 -6 2 -8
9 -5 11 7 46 -34 41 -48 -1 -5 2 -6 7 -3 13 8 34 -21 25 -35 -4 -8 -3 -9 4 -5
16 10 47 -57 73 -155 17 -66 19 -87 9 -102 -7 -12 -7 -17 -1 -12 8 4 11 -133
11 -469 0 -311 -3 -476 -10 -476 -5 0 -9 -19 -9 -42 l2 -43 7 40 c6 33 7 27 9
-37 1 -55 -3 -78 -11 -78 -9 0 -9 -3 0 -12 9 -9 12 -209 11 -842 -1 -457 -5
-820 -9 -806 -7 22 -8 20 -9 -15 0 -29 2 -36 9 -25 7 10 9 -5 8 -50 -1 -63 -1
-64 -8 -20 l-7 45 -1 -47 c-1 -27 3 -48 8 -48 6 0 10 -127 10 -361 0 -247 -3
-358 -10 -354 -7 4 -9 -2 -5 -18 8 -31 -39 -142 -69 -163 -11 -8 -16 -14 -11
-14 14 0 -65 -78 -111 -111 -65 -45 -177 -78 -300 -88 -60 -5 -340 -9 -621 -9
-472 -1 -513 0 -524 16 -10 16 -10 16 -5 -1 5 -16 -3 -17 -110 -14 -86 2 -118
7 -126 18 -8 11 -9 10 -4 -5 5 -14 3 -17 -11 -11 -10 4 -27 9 -38 12 -16 4
-17 3 -5 -6 11 -8 -7 -10 -67 -9 -46 1 -83 6 -83 11 0 5 11 7 25 5 13 -3 22
-1 19 3 -3 5 -19 9 -36 9 -23 0 -29 -4 -24 -15 4 -12 -2 -14 -29 -12 -19 1
-35 6 -35 11 0 4 11 6 25 4 14 -3 25 -1 25 3 0 14 -50 10 -56 -4 -3 -9 -29
-14 -85 -15 -55 -1 -78 2 -73 9 3 6 17 9 30 6 15 -2 24 1 24 8 0 14 -47 9 -67
-8 -9 -7 -13 -5 -13 5 0 11 -7 14 -25 10 -14 -2 -27 -8 -30 -12 -2 -4 7 -5 20
-2 14 2 25 0 25 -4 0 -15 -60 -10 -71 6 -9 12 -10 12 -5 -3 5 -14 1 -18 -17
-15 -12 2 -28 11 -35 21 -7 9 -17 17 -23 17 -5 0 -9 -8 -9 -17 0 -14 2 -15 9
-5 7 11 9 11 14 0 4 -11 -8 -14 -59 -13 -34 0 -66 4 -70 8 -4 4 -14 7 -23 7
-14 0 -14 -2 -1 -10 11 -7 7 -8 -15 -6 -17 2 -36 4 -43 5 -7 0 -10 7 -7 14 4
6 1 5 -7 -3 -10 -12 -45 -16 -165 -18 -102 -2 -153 0 -153 7 0 6 -5 11 -11 11
-5 0 -7 -6 -4 -12 4 -7 0 -5 -8 5 -15 18 -83 25 -72 7 3 -5 1 -10 -4 -10 -6 0
-11 5 -11 10 0 6 -8 10 -17 10 -14 0 -15 -2 -5 -9 20 -12 -36 -20 -132 -18
-58 2 -81 6 -84 16 -3 8 0 11 5 8 5 -3 10 0 10 7 0 10 -6 10 -23 2 -13 -6 -19
-12 -14 -14 15 -6 12 -19 -5 -19 -8 0 -15 4 -15 9 0 4 -5 8 -11 8 -5 0 -7 -5
-3 -11 8 -14 -68 -9 -78 6 -5 6 -8 6 -8 0 0 -10 -88 -11 -157 -2 -18 2 -31 1
-29 -2 5 -8 -1332 -5 -1405 3 -106 12 -254 59 -243 78 3 4 -3 5 -12 1 -11 -4
-15 -2 -11 4 4 6 0 10 -8 9 -34 -3 -146 110 -127 128 4 4 0 6 -8 4 -19 -4 -53
66 -76 157 -16 64 -17 142 -16 890 1 451 2 921 2 1045 -1 124 0 322 1 440 1
118 1 252 1 298 -1 49 3 80 9 77 5 -4 9 4 9 17 0 18 -2 20 -10 8 -8 -12 -10
-8 -11 15 -1 17 -1 37 -1 45 1 8 2 106 2 218 0 130 4 201 10 197 6 -3 10 -2
10 4 0 5 -4 11 -9 13 -8 2 -17 181 -12 213 1 6 2 56 1 112 -1 107 26 241 56
280 13 17 14 17 7 -2 -3 -11 -3 -17 1 -13 4 3 9 17 10 31 6 49 104 146 195
192 88 44 213 72 195 43 -4 -7 -3 -8 5 -4 6 4 9 11 6 16 -8 13 34 17 188 19
85 0 137 -3 137 -9z m4588 -34 c37 -19 87 -54 112 -76 25 -23 36 -36 25 -29
-11 7 -32 24 -46 36 -14 13 -59 42 -100 63 -41 22 -71 40 -66 40 4 0 38 -15
75 -34z m-5098 4 c-8 -5 -19 -10 -25 -10 -5 0 -3 5 5 10 8 5 20 10 25 10 6 0
3 -5 -5 -10z m-40 -15 c0 -2 -10 -9 -22 -15 -22 -11 -22 -10 -4 4 21 17 26 19
26 11z m-117 -92 c-38 -38 -84 -95 -102 -128 -18 -33 -30 -51 -26 -40 14 47
74 131 128 181 82 76 82 67 0 -13z m1814 31 c-5 -5 -57 13 -57 20 0 3 14 0 31
-6 16 -6 28 -12 26 -14z m3574 9 c13 -16 12 -17 -3 -4 -17 13 -22 21 -14 21 2
0 10 -8 17 -17z m-3136 -74 c-51 -10 -92 -10 -50 1 17 4 44 8 60 8 25 0 24 -2
-10 -9z m790 -10 c230 -23 388 -76 502 -168 l52 -42 502 1 c277 0 500 -2 498
-5 -3 -2 -234 -5 -513 -5 l-507 -1 -39 35 c-47 42 -158 100 -245 127 -110 34
-309 52 -580 52 -350 0 -602 -29 -749 -89 -85 -34 -191 -108 -206 -144 -16
-37 -40 -60 -40 -36 0 9 -4 16 -10 16 -18 0 -11 26 13 47 32 30 118 88 163
111 195 99 725 145 1159 101z m2436 -72 c11 -22 18 -42 15 -45 -3 -3 -6 -1 -6
4 0 6 -16 36 -35 68 -19 32 -35 61 -35 65 0 9 38 -48 61 -92z m-3394 57 c-3
-3 -12 -4 -19 -1 -8 3 -5 6 6 6 11 1 17 -2 13 -5z m3428 -64 c55 -109 55 -101
53 -1040 l-3 -865 -5 885 c-4 581 -10 897 -17 921 -5 20 -22 62 -36 93 -32 69
-26 74 8 6z m-2604 -10 c328 -15 466 -56 600 -178 80 -75 123 -145 149 -247
19 -74 21 -109 20 -495 0 -228 -4 -438 -9 -466 -33 -173 -138 -312 -295 -390
-131 -64 -145 -66 -731 -74 -586 -8 -614 -11 -794 -80 -207 -80 -356 -243
-396 -435 -11 -52 -15 -144 -15 -366 0 -261 -2 -298 -16 -303 -26 -10 -345 -7
-413 5 -260 42 -444 222 -507 494 -16 72 -18 127 -18 525 1 504 5 543 74 686
72 149 211 268 374 320 168 53 245 57 1001 51 721 -5 869 0 1080 39 117 22
142 37 45 27 -109 -12 -205 -10 -203 3 2 12 -118 50 -204 64 -80 13 -963 13
-963 0 0 -5 -11 -10 -25 -10 l-25 0 0 178 c0 203 11 263 65 352 100 165 221
231 500 275 197 31 408 39 706 25z m2606 -82 c-3 -8 -6 -5 -6 6 -1 11 2 17 5
13 3 -3 4 -12 1 -19z m-5660 -45 c-3 -10 -5 -4 -5 12 0 17 2 24 5 18 2 -7 2
-21 0 -30z m5679 -1883 c0 -1020 -2 -1711 -3 -1535 -6 743 -7 3446 -2 3419 4
-16 6 -864 5 -1884z m-5689 -688 c-1 -466 -2 -82 -2 853 0 935 1 1316 2 847 2
-470 2 -1235 0 -1700z m3873 2427 c0 -7 -6 -4 -15 7 -19 25 -19 40 0 20 8 -8
15 -20 15 -27z m80 -384 c0 -8 -2 -15 -4 -15 -2 0 -6 7 -10 15 -3 8 -1 15 4
15 6 0 10 -7 10 -15z m1767 -1387 c-2 -24 -4 -7 -4 37 0 44 2 63 4 43 2 -21 2
-57 0 -80z m0 -105 c-3 -10 -5 -2 -5 17 0 19 2 27 5 18 2 -10 2 -26 0 -35z m0
-805 c-1 -145 -2 -27 -2 262 0 289 1 407 2 263 2 -145 2 -381 0 -525z m0 -365
c-2 -21 -4 -6 -4 32 0 39 2 55 4 38 2 -18 2 -50 0 -70z m0 -420 c-1 -71 -3
-13 -3 127 0 140 2 198 3 128 2 -71 2 -185 0 -255z m-5720 110 c-2 -16 -4 -3
-4 27 0 30 2 43 4 28 2 -16 2 -40 0 -55z m0 -190 c-2 -16 -4 -5 -4 22 0 28 2
40 4 28 2 -13 2 -35 0 -50z m5680 -85 c-3 -7 -5 -2 -5 12 0 14 2 19 5 13 2 -7
2 -19 0 -25z m-46 -121 c-10 -9 -11 -8 -5 6 3 10 9 15 12 12 3 -3 0 -11 -7
-18z m-5550 -24 c13 -16 12 -17 -3 -4 -10 7 -18 15 -18 17 0 8 8 3 21 -13z
m5529 -17 c0 -2 -8 -10 -17 -17 -16 -13 -17 -12 -4 4 13 16 21 21 21 13z
m-5469 -53 c13 -16 12 -17 -3 -4 -10 7 -18 15 -18 17 0 8 8 3 21 -13z m5423
-8 c-16 -24 -89 -77 -151 -109 -58 -29 -49 -17 14 21 35 20 81 54 104 75 47
44 56 48 33 13z m-5347 -71 c-9 -9 -28 6 -21 18 4 6 10 6 17 -1 6 -6 8 -13 4
-17z m47 -20 c4 -12 2 -12 -14 -4 -11 6 -20 15 -20 20 0 14 28 1 34 -16z m156
-49 c30 -7 46 -14 35 -14 -11 0 -42 6 -70 13 -65 18 -37 19 35 1z m4930 5 c-8
-5 -22 -9 -30 -9 -10 0 -8 3 5 9 27 12 43 12 25 0z m-75 -20 c-16 -4 -68 -7
-115 -7 l-85 1 90 6 c134 9 146 9 110 0z m-4642 -7 c-29 -2 -77 -2 -105 0 -29
2 -6 3 52 3 58 0 81 -1 53 -3z m3880 0 c-7 -2 -21 -2 -30 0 -10 3 -4 5 12 5
17 0 24 -2 18 -5z m400 0 c-13 -2 -35 -2 -50 0 -16 2 -5 4 22 4 28 0 40 -2 28
-4z m80 0 c-7 -2 -21 -2 -30 0 -10 3 -4 5 12 5 17 0 24 -2 18 -5z"/>
<path d="M5885 10695 c-86 -30 -138 -128 -116 -215 36 -135 180 -189 291 -109
114 83 104 247 -19 311 -59 31 -96 34 -156 13z m73 -67 c18 -18 15 -26 -19
-44 -37 -19 -79 -11 -79 14 0 27 20 42 55 42 17 0 36 -5 43 -12z"/>
<path d="M3210 10390 c0 -5 5 -10 11 -10 5 0 7 5 4 10 -3 6 -8 10 -11 10 -2 0
-4 -4 -4 -10z"/>
<path d="M2690 10360 c0 -5 7 -7 15 -4 8 4 15 8 15 10 0 2 -7 4 -15 4 -8 0
-15 -4 -15 -10z"/>
<path d="M2670 10340 c0 -5 5 -10 11 -10 5 0 7 5 4 10 -3 6 -8 10 -11 10 -2 0
-4 -4 -4 -10z"/>
<path d="M2438 10173 c7 -3 16 -2 19 1 4 3 -2 6 -13 5 -11 0 -14 -3 -6 -6z"/>
<path d="M7468 10166 c-31 -11 -35 -32 -14 -61 31 -42 95 -11 77 38 -12 30
-28 36 -63 23z"/>
<path d="M2578 10153 c-11 -3 -17 -13 -16 -28 l2 -23 33 25 c18 14 33 27 33
29 0 5 -29 3 -52 -3z"/>
<path d="M3126 10133 c-6 -14 -5 -15 5 -6 7 7 10 15 7 18 -3 3 -9 -2 -12 -12z"/>
<path d="M3144 10114 c-10 -8 -14 -13 -7 -10 6 4 13 1 15 -6 3 -7 7 -2 10 10
7 26 7 26 -18 6z"/>
<path d="M7743 10114 c-8 -21 13 -42 28 -27 13 13 5 43 -11 43 -6 0 -13 -7
-17 -16z"/>
<path d="M7877 10104 c5 -13 3 -15 -7 -9 -9 5 -11 4 -6 -3 4 -7 11 -12 17 -12
12 0 12 27 -1 35 -6 4 -7 -1 -3 -11z"/>
<path d="M7770 10073 c1 -18 18 -35 24 -24 4 6 4 16 1 21 -7 12 -25 13 -25 3z"/>
<path d="M2436 10024 c-9 -22 -8 -24 9 -18 8 4 15 12 15 20 0 19 -16 18 -24
-2z"/>
<path d="M2566 9992 c-3 -5 1 -9 9 -9 8 0 12 4 9 9 -3 4 -7 8 -9 8 -2 0 -6 -4
-9 -8z"/>
<path d="M2760 9990 c0 -5 5 -10 11 -10 5 0 7 5 4 10 -3 6 -8 10 -11 10 -2 0
-4 -4 -4 -10z"/>
<path d="M2509 9958 c-23 -19 -30 -44 -16 -62 10 -12 39 -16 157 -17 166 -2
171 -1 186 26 6 11 16 19 22 18 8 -2 9 5 3 20 -8 21 -13 22 -172 25 -123 2
-168 0 -180 -10z m319 -21 c8 -41 -13 -47 -170 -47 -159 0 -172 4 -148 49 11
21 17 21 163 19 137 -3 152 -5 155 -21z"/>
<path d="M7600 9929 c0 -5 5 -7 10 -4 6 3 10 8 10 11 0 2 -4 4 -10 4 -5 0 -10
-5 -10 -11z"/>
<path d="M7591 9885 c-1 -7 -35 -12 -83 -14 -74 -2 -111 -12 -97 -25 8 -8 187
-11 195 -3 4 4 2 17 -4 29 -6 13 -11 18 -11 13z"/>
<path d="M7922 9870 c0 -14 2 -19 5 -12 2 6 2 18 0 25 -3 6 -5 1 -5 -13z"/>
<path d="M2607 9794 c-1 -2 -28 -4 -60 -5 -31 -1 -57 -5 -58 -8 -7 -54 -5 -59
36 -71 22 -6 52 -15 68 -20 15 -4 27 -5 27 -1 0 4 28 8 63 9 75 2 113 17 121
45 10 38 -15 49 -108 51 -47 2 -87 1 -89 0z m177 -31 c13 -33 -21 -43 -150
-43 -106 0 -123 2 -128 17 -13 33 21 43 150 43 106 0 123 -2 128 -17z"/>
<path d="M2543 9764 c7 -7 219 -6 226 2 2 2 -49 4 -114 4 -65 0 -116 -3 -112
-6z"/>
<path d="M2911 9777 c-33 -16 -36 -32 -12 -56 19 -19 33 -21 180 -21 88 0 165
-2 173 -3 7 -2 10 -2 6 0 -4 3 -1 11 7 20 21 20 19 39 -7 57 -29 21 -309 23
-347 3z"/>
<path d="M6590 9771 c-20 -8 -19 -50 2 -65 10 -7 15 -16 11 -19 -3 -4 -3 -7 2
-7 9 0 55 48 55 58 -1 27 -40 46 -70 33z"/>
<path d="M6888 9766 c-18 -14 -22 -33 -12 -59 4 -12 32 -15 144 -16 128 -2
141 0 160 19 25 25 26 46 1 60 -30 15 -272 12 -293 -4z"/>
<path d="M7922 9735 c0 -16 2 -22 5 -12 2 9 2 23 0 30 -3 6 -5 -1 -5 -18z"/>
<path d="M7923 9630 c0 -30 2 -43 4 -27 2 15 2 39 0 55 -2 15 -4 2 -4 -28z"/>
<path d="M6222 9614 c-1 -13 0 -24 2 -24 7 0 14 40 7 44 -4 3 -8 -6 -9 -20z"/>
<path d="M3393 9586 c1 -6 -3 -10 -10 -9 -15 3 2 -48 20 -59 7 -4 93 -8 192
-8 147 0 185 3 203 16 27 19 28 36 3 58 -16 15 -42 17 -214 15 -140 -1 -196
-5 -194 -13z m405 -28 c4 -37 -8 -39 -218 -36 -164 3 -175 4 -178 22 -8 41 21
47 213 44 l180 -3 3 -27z"/>
<path d="M6928 9593 c7 -3 16 -2 19 1 4 3 -2 6 -13 5 -11 0 -14 -3 -6 -6z"/>
<path d="M7141 9584 c-12 -7 -28 -17 -34 -23 -13 -13 -18 -63 -6 -55 4 2 10 0
14 -6 4 -6 82 -10 208 -10 176 0 198 -2 181 -14 -10 -8 -16 -18 -11 -22 9 -9
24 5 29 26 2 8 9 21 16 28 6 7 12 28 12 47 0 28 -3 32 -20 28 -11 -3 -20 -1
-20 3 0 14 -342 11 -369 -2z m397 -37 c8 -40 -23 -46 -218 -47 -132 0 -190 4
-198 12 -16 16 -15 45 1 51 6 3 102 5 212 4 185 -2 200 -3 203 -20z"/>
<path d="M7612 9580 c-13 -12 -19 -26 -15 -36 4 -12 2 -15 -8 -12 -8 3 -13 11
-11 17 1 7 -2 10 -8 6 -14 -9 -13 -35 3 -35 8 0 7 -4 -3 -10 -9 -6 -10 -10 -3
-10 6 0 14 4 17 9 4 5 19 3 37 -6 37 -18 170 -15 177 5 2 7 7 10 11 8 4 -3 7
4 7 14 0 10 -4 16 -8 14 -4 -3 -8 1 -8 9 0 21 -22 27 -101 27 -44 0 -68 4 -64
10 10 16 1 12 -23 -10z"/>
<path d="M2524 9580 c-24 -10 -36 -33 -28 -55 6 -13 24 -19 40 -12 3 1 12 -9
21 -23 8 -14 12 -17 9 -7 -5 15 3 17 67 18 40 0 91 1 115 3 32 2 42 -1 42 -13
0 -24 8 -8 15 28 12 69 8 71 -133 70 -70 0 -136 -4 -148 -9z m21 -53 c16 -5
15 -5 -4 -4 -14 1 -26 9 -28 17 -3 10 -2 11 4 4 4 -7 17 -14 28 -17z m143 -4
c-21 -2 -55 -2 -75 0 -21 2 -4 4 37 4 41 0 58 -2 38 -4z"/>
<path d="M2912 9578 c-16 -16 -15 -43 1 -56 18 -14 156 -23 259 -15 73 5 91 9
99 25 7 13 7 23 0 32 -6 7 -8 15 -5 19 3 3 -72 6 -168 7 -126 0 -177 -3 -186
-12z m166 -55 c-21 -2 -57 -2 -80 0 -24 2 -7 4 37 4 44 0 63 -2 43 -4z m90 0
c-10 -2 -26 -2 -35 0 -10 3 -2 5 17 5 19 0 27 -2 18 -5z"/>
<path d="M6221 9564 c0 -11 3 -14 6 -6 3 7 2 16 -1 19 -3 4 -6 -2 -5 -13z"/>
<path d="M6502 9571 c-8 -4 -12 -19 -10 -32 2 -17 11 -25 35 -30 36 -7 90 14
90 36 0 8 -4 12 -8 10 -4 -3 -9 2 -13 10 -6 17 -71 21 -94 6z"/>
<path d="M6696 9564 c-9 -8 -16 -20 -16 -25 0 -23 22 -49 41 -49 11 0 18 -4
15 -9 -3 -5 1 -11 9 -14 9 -4 12 -1 8 9 -4 11 4 14 32 14 20 0 34 -4 31 -9 -8
-12 18 -21 34 -11 10 6 8 9 -6 13 -10 2 9 5 44 6 63 1 102 22 102 54 0 31 -24
37 -151 37 -103 0 -131 -3 -143 -16z"/>
<path d="M7918 9530 c-3 -16 -1 -30 4 -30 4 0 8 14 8 30 0 17 -2 30 -4 30 -2
0 -6 -13 -8 -30z"/>
<path d="M2466 9508 c3 -5 10 -6 15 -3 13 9 11 12 -6 12 -8 0 -12 -4 -9 -9z"/>
<path d="M7596 9487 c3 -10 9 -15 12 -12 3 3 0 11 -7 18 -10 9 -11 8 -5 -6z"/>
<path d="M2580 9481 c0 -6 4 -13 10 -16 6 -3 7 1 4 9 -7 18 -14 21 -14 7z"/>
<path d="M2636 9482 c-2 -4 4 -8 15 -8 10 0 19 4 19 8 0 4 -6 8 -14 8 -8 0
-17 -4 -20 -8z"/>
<path d="M2706 9478 c3 -5 10 -6 15 -3 13 9 11 12 -6 12 -8 0 -12 -4 -9 -9z"/>
<path d="M3040 9486 c0 -2 7 -6 15 -10 8 -3 15 -1 15 4 0 6 -7 10 -15 10 -8 0
-15 -2 -15 -4z"/>
<path d="M7922 9465 c0 -16 2 -22 5 -12 2 9 2 23 0 30 -3 6 -5 -1 -5 -18z"/>
<path d="M6878 9473 c7 -3 16 -2 19 1 4 3 -2 6 -13 5 -11 0 -14 -3 -6 -6z"/>
<path d="M7298 9473 c7 -3 16 -2 19 1 4 3 -2 6 -13 5 -11 0 -14 -3 -6 -6z"/>
<path d="M7363 9473 c9 -2 23 -2 30 0 6 3 -1 5 -18 5 -16 0 -22 -2 -12 -5z"/>
<path d="M7430 9476 c0 -2 11 -6 25 -8 13 -3 22 -1 19 3 -5 9 -44 13 -44 5z"/>
<path d="M2615 9450 c3 -5 8 -10 11 -10 2 0 4 5 4 10 0 6 -5 10 -11 10 -5 0
-7 -4 -4 -10z"/>
<path d="M6220 9410 c0 -5 5 -10 11 -10 5 0 7 5 4 10 -3 6 -8 10 -11 10 -2 0
-4 -4 -4 -10z"/>
<path d="M6225 9381 c-3 -5 -2 -12 3 -15 5 -3 9 1 9 9 0 17 -3 19 -12 6z"/>
<path d="M2533 9309 c-39 -11 -52 -43 -27 -70 15 -17 32 -19 165 -19 121 0
150 3 163 16 9 8 16 20 16 25 0 5 -9 0 -20 -11 -18 -18 -33 -20 -151 -20 -129
0 -169 8 -169 34 0 31 33 41 154 47 l121 5 -110 1 c-60 1 -124 -3 -142 -8z"/>
<path d="M2800 9317 c0 -3 12 -12 26 -22 15 -9 23 -12 20 -6 -7 11 -46 35 -46
28z"/>
<path d="M2978 9285 c-9 -21 -8 -28 7 -45 10 -11 30 -20 44 -19 24 1 24 1 -6
10 -40 12 -47 23 -33 50 10 17 19 20 50 17 21 -2 36 0 34 4 -3 5 -23 8 -45 8
-32 0 -41 -4 -51 -25z"/>
<path d="M3183 9303 c-19 -7 -16 -60 3 -67 9 -3 67 -6 129 -6 96 0 116 3 136
19 23 19 24 19 5 40 -17 19 -29 21 -140 20 -67 0 -127 -3 -133 -6z m235 -20
c-16 -2 -40 -2 -55 0 -16 2 -3 4 27 4 30 0 43 -2 28 -4z m17 -23 c4 -6 -9 -10
-32 -9 -38 1 -38 1 -8 9 17 4 31 8 32 9 1 0 5 -3 8 -9z m-167 -7 c-10 -2 -28
-2 -40 0 -13 2 -5 4 17 4 22 1 32 -1 23 -4z"/>
<path d="M7921 9284 c0 -11 3 -14 6 -6 3 7 2 16 -1 19 -3 4 -6 -2 -5 -13z"/>
<path d="M6876 9274 c-22 -21 -20 -51 3 -64 29 -15 343 -13 363 3 16 12 32 71
17 62 -4 -3 -10 -1 -14 5 -4 6 -73 10 -180 10 -144 0 -176 -3 -189 -16z m147
-1 c-13 -2 -33 -2 -45 0 -13 2 -3 4 22 4 25 0 35 -2 23 -4z"/>
<path d="M7365 9282 c-5 -4 -18 -22 -28 -41 -13 -24 -14 -31 -4 -22 12 9 16 8
21 -4 8 -22 400 -23 422 -1 18 19 18 41 -2 60 -13 13 -46 16 -207 16 -106 0
-196 -4 -202 -8z m63 -19 c-10 -2 -26 -2 -35 0 -10 3 -2 5 17 5 19 0 27 -2 18
-5z m-11 -49 c-3 -3 -12 -4 -19 -1 -8 3 -5 6 6 6 11 1 17 -2 13 -5z"/>
<path d="M7922 9210 c0 -14 2 -19 5 -12 2 6 2 18 0 25 -3 6 -5 1 -5 -13z"/>
<path d="M6351 9200 c-90 -8 -90 -8 -95 -320 -6 -337 -23 -411 -123 -528 -80
-94 -202 -157 -368 -191 -27 -5 -63 -13 -80 -17 -16 -3 -277 -10 -580 -13
-609 -8 -602 -7 -742 -77 -87 -44 -205 -150 -251 -226 -42 -71 -70 -150 -82
-240 -17 -119 -13 -828 5 -935 17 -95 45 -178 76 -230 11 -18 18 -37 14 -43
-4 -6 -3 -9 2 -8 13 4 71 -65 66 -79 -2 -6 1 -14 6 -18 7 -4 8 1 4 12 -4 10
18 -4 48 -32 29 -27 53 -53 52 -56 -1 -4 5 -6 15 -5 9 0 16 -5 14 -12 -1 -8 2
-11 8 -7 12 7 71 -25 64 -36 -9 -15 7 -34 31 -35 l26 -2 -23 21 c-20 18 -21
19 -3 12 11 -4 41 -15 67 -24 27 -10 46 -20 44 -22 -2 -2 8 -5 22 -5 65 -4
187 -31 184 -42 -1 -7 8 -12 20 -12 19 0 20 2 8 10 -10 7 90 9 298 7 201 -1
314 2 316 8 3 6 5 4 5 -2 1 -7 9 -13 19 -12 14 0 14 2 2 7 -14 6 164 32 242
35 20 1 34 5 31 10 -2 4 3 7 11 7 45 0 193 66 275 123 25 18 50 31 54 29 5 -1
6 2 3 7 -3 5 2 15 11 22 9 8 36 40 60 73 24 32 43 53 43 48 0 -6 -4 -14 -10
-17 -13 -8 -13 -35 1 -35 5 0 7 5 4 10 -4 6 -1 17 5 25 6 8 9 19 5 25 -4 6 -1
25 6 41 7 19 15 26 19 19 4 -6 7 1 7 17 0 15 5 62 11 103 13 89 15 286 3 350
-6 28 -19 53 -36 67 l-26 23 -372 0 c-353 0 -437 6 -452 30 -3 6 248 9 635 10
408 0 639 -3 636 -9 -4 -5 3 -9 14 -8 11 1 20 7 20 14 0 9 15 13 43 13 36 0
145 19 212 37 11 3 30 6 42 7 11 0 19 4 17 7 -2 4 5 9 17 12 18 5 18 3 7 -11
-12 -15 -11 -16 4 -4 10 8 23 10 30 6 10 -6 9 -3 -1 9 -7 10 -9 17 -3 17 6 0
47 25 92 55 44 30 78 50 75 45 -3 -6 -1 -10 5 -10 7 0 9 7 6 16 -7 17 67 100
81 91 6 -4 10 0 10 8 0 8 -3 12 -7 10 -4 -2 10 29 32 70 71 136 78 190 78 665
0 437 -4 495 -46 625 -37 114 -77 180 -163 266 -137 136 -282 186 -576 197
-93 4 -194 5 -224 2z m474 -40 c123 -27 222 -78 303 -155 129 -121 193 -275
213 -512 16 -183 5 -770 -15 -863 -71 -325 -309 -506 -689 -525 l-92 -4 115
13 c210 26 369 84 449 167 81 81 91 96 91 127 0 18 -5 32 -10 32 -6 0 -1 18
10 40 17 33 26 40 49 40 21 0 30 6 34 23 6 22 6 22 -9 2 -13 -17 -16 -18 -25
-5 -5 8 -7 31 -4 50 3 19 7 62 10 95 4 60 4 60 -4 10 -25 -151 -71 -247 -160
-335 -100 -98 -222 -154 -396 -181 -41 -6 -351 -14 -740 -18 -616 -8 -682 -10
-815 -30 -158 -24 -194 -36 -87 -28 40 2 63 1 55 -4 -9 -6 -10 -9 0 -9 6 0 12
-4 12 -9 0 -4 -24 -7 -52 -5 -51 3 -52 3 -13 -5 49 -11 131 -3 145 15 9 10 24
5 71 -21 33 -19 76 -39 97 -45 22 -6 182 -10 403 -10 346 0 368 -1 390 -19 23
-19 24 -24 25 -183 2 -204 -7 -270 -50 -363 -71 -153 -223 -268 -421 -319
-162 -42 -276 -51 -645 -51 -320 0 -352 2 -442 22 -233 53 -399 164 -498 333
-83 141 -99 260 -100 733 0 475 24 589 157 742 39 45 141 120 198 146 134 60
151 61 750 69 339 5 573 12 610 19 273 52 432 176 501 391 14 45 18 104 22
330 2 151 8 283 14 293 17 33 49 37 253 32 151 -3 222 -9 290 -25z m-587
-2067 c-153 -2 -403 -2 -555 0 -153 1 -28 2 277 2 305 0 430 -1 278 -2z"/>
<path d="M7263 7805 c0 -27 2 -38 4 -22 2 15 2 37 0 50 -2 12 -4 0 -4 -28z"/>
<path d="M6131 6794 c-2 -192 -9 -236 -56 -320 -98 -175 -282 -274 -578 -310
-169 -20 -655 -24 -772 -6 -132 21 -272 73 -358 134 -33 23 -132 145 -149 184
l-13 28 -5 -30 c-6 -32 9 -74 26 -74 6 0 14 -18 18 -40 3 -22 11 -40 17 -40
13 0 48 -40 49 -56 1 -28 143 -103 262 -138 139 -40 263 -49 588 -43 466 8
638 46 818 182 69 52 107 101 148 191 26 58 48 184 32 184 -4 0 -8 72 -8 160
0 88 -4 160 -9 160 -5 0 -10 -75 -10 -166z"/>
<path d="M5537 6771 c-110 -71 -123 -231 -25 -304 153 -113 361 -4 334 176 -8
53 -63 122 -113 143 -18 8 -59 14 -91 14 -47 0 -67 -6 -105 -29z"/>
<path d="M2545 9113 c-16 -2 -36 -12 -42 -21 -10 -12 -13 -12 -13 -2 0 7 -3
10 -6 7 -4 -4 -1 -13 5 -21 7 -8 9 -21 5 -27 -4 -8 -3 -9 4 -5 7 4 12 2 12 -3
0 -7 51 -11 148 -11 165 0 190 7 179 52 -6 23 -13 26 -74 31 -71 7 -167 7
-218 0z m268 -20 c3 -5 -43 -7 -101 -5 -165 4 -180 9 -35 10 72 1 134 -1 136
-5z m-200 -50 c-7 -2 -21 -2 -30 0 -10 3 -4 5 12 5 17 0 24 -2 18 -5z"/>
<path d="M7547 9104 c5 -13 3 -15 -7 -9 -9 5 -11 4 -6 -4 10 -16 -213 -14
-233 2 -11 9 -13 9 -8 1 4 -7 0 -15 -9 -18 -23 -9 -14 -58 13 -72 13 -6 20
-13 17 -16 -3 -4 42 -5 100 -5 58 1 106 6 106 10 0 4 10 3 21 -4 15 -8 19 -8
15 0 -4 7 1 11 13 11 28 0 45 34 31 60 -6 11 -19 20 -30 20 -12 0 -17 5 -14
14 3 8 1 17 -5 21 -7 4 -8 0 -4 -11z m6 -91 c-7 -2 -19 -2 -25 0 -7 3 -2 5 12
5 14 0 19 -2 13 -5z"/>
<path d="M7418 9093 c7 -3 16 -2 19 1 4 3 -2 6 -13 5 -11 0 -14 -3 -6 -6z"/>
<path d="M7918 9030 c-3 -16 -1 -35 4 -42 4 -8 8 4 8 30 0 49 -6 55 -12 12z"/>
<path d="M2524 8920 c-27 -10 -34 -29 -23 -57 8 -22 14 -23 108 -23 115 0 131
4 130 34 0 21 0 21 -9 -2 -9 -22 -13 -23 -112 -20 -82 2 -103 6 -105 18 -7 36
12 43 116 42 59 0 99 3 96 9 -8 11 -172 11 -201 -1z"/>
<path d="M7391 8883 c-25 -17 -27 -45 -5 -64 19 -15 231 -14 250 2 6 5 14 6
17 3 4 -4 2 8 -3 26 -5 19 -15 37 -22 41 -23 14 -215 8 -237 -8z m187 -60
c-10 -2 -28 -2 -40 0 -13 2 -5 4 17 4 22 1 32 -1 23 -4z"/>
<path d="M7738 8887 c-28 -21 -31 -54 -8 -74 26 -23 40 -23 65 -1 13 12 21 29
20 49 -1 28 -5 32 -31 35 -17 2 -38 -2 -46 -9z m51 -36 c0 -10 -2 -11 -6 -3
-2 6 -9 10 -13 7 -5 -3 -7 -12 -3 -20 3 -9 -1 -15 -11 -15 -15 0 -23 39 -10
52 11 11 44 -5 43 -21z"/>
<path d="M2502 8608 c-7 -7 -12 -22 -12 -35 0 -33 34 -43 149 -43 116 0 161
12 161 44 0 41 -17 46 -155 46 -89 0 -135 -4 -143 -12z m283 -19 c4 -12 3 -25
-2 -29 -8 -8 -149 -15 -231 -12 -46 2 -63 21 -42 47 10 12 39 15 141 15 121 0
128 -1 134 -21z"/>
<path d="M2521 8428 c-10 -3 -23 -20 -29 -37 -9 -27 -9 -31 6 -31 13 0 14 -2
4 -9 -11 -7 -11 -9 2 -14 9 -4 16 -3 16 1 0 4 57 7 126 7 113 0 127 2 140 19
17 24 17 28 2 48 -11 14 -36 17 -131 20 -65 2 -127 0 -136 -4z m67 -17 c-31
-3 -60 -10 -64 -14 -20 -20 20 -28 127 -25 93 2 114 6 114 18 0 11 -15 17 -50
21 l-50 6 51 1 c59 2 86 -16 64 -43 -10 -12 -37 -15 -125 -15 -119 0 -145 4
-145 24 0 25 25 36 80 35 l55 -2 -57 -6z"/>
<path d="M7595 8415 c-6 -8 -22 -16 -37 -17 -15 -1 -24 -6 -21 -11 3 -4 -4
-11 -15 -14 -23 -6 -39 -36 -23 -41 6 -2 9 -8 5 -13 -3 -5 0 -9 5 -9 6 0 11
-8 12 -17 0 -12 2 -13 6 -5 4 10 9 8 21 -5 18 -19 74 -25 89 -9 5 5 2 6 -7 1
-8 -4 -3 4 12 19 24 23 26 29 17 56 -6 16 -15 27 -20 24 -9 -5 -13 16 -10 44
3 17 -22 15 -34 -3z"/>
<path d="M7923 8360 c0 -25 2 -35 4 -22 2 12 2 32 0 45 -2 12 -4 2 -4 -23z"/>
<path d="M7921 8294 c0 -11 3 -14 6 -6 3 7 2 16 -1 19 -3 4 -6 -2 -5 -13z"/>
<path d="M7924 8175 c0 -55 1 -76 3 -47 2 29 2 74 0 100 -2 26 -3 2 -3 -53z"/>
<path d="M2515 8242 c-24 -8 -33 -56 -15 -78 19 -21 262 -20 284 2 21 21 20
47 -2 67 -15 14 -40 17 -133 16 -63 -1 -123 -4 -134 -7z m264 -26 c6 -7 9 -21
5 -30 -5 -14 -25 -16 -135 -16 -135 0 -151 5 -135 45 8 21 248 22 265 1z"/>
<path d="M2527 8213 c-4 -3 -7 -12 -7 -20 0 -10 28 -13 125 -13 118 0 125 1
125 20 0 19 -7 20 -118 20 -65 0 -122 -3 -125 -7z"/>
<path d="M2595 8070 c-3 -5 -2 -10 4 -10 5 0 13 5 16 10 3 6 2 10 -4 10 -5 0
-13 -4 -16 -10z"/>
<path d="M7923 8035 c0 -22 2 -30 4 -17 2 12 2 30 0 40 -3 9 -5 -1 -4 -23z"/>
<path d="M2630 8049 c11 -8 0 -9 -43 -6 -51 5 -60 3 -84 -19 -21 -19 -23 -26
-13 -38 6 -9 9 -19 7 -23 -3 -5 12 -8 33 -8 21 0 37 -2 34 -6 -5 -9 173 0 200
11 29 11 38 41 19 66 -11 16 -24 19 -73 16 -32 -1 -62 2 -65 8 -3 5 -12 10
-18 10 -7 0 -6 -4 3 -11z m148 -43 c6 -30 -16 -36 -141 -36 -96 0 -119 3 -123
15 -4 8 -1 22 6 30 11 13 36 15 134 13 109 -3 121 -5 124 -22z"/>
<path d="M2525 8010 c-14 -22 9 -28 115 -29 117 -2 132 1 123 24 -4 12 -28 15
-118 15 -65 0 -116 -4 -120 -10z"/>
<path d="M7578 7923 c-19 -5 -34 -45 -23 -63 3 -6 22 -10 40 -8 27 2 34 7 39
27 4 23 -16 53 -33 50 -3 -1 -14 -3 -23 -6z"/>
<path d="M7923 7875 c0 -27 2 -38 4 -22 2 15 2 37 0 50 -2 12 -4 0 -4 -28z"/>
<path d="M2538 7843 c7 -3 16 -2 19 1 4 3 -2 6 -13 5 -11 0 -14 -3 -6 -6z"/>
<path d="M2515 7767 c-33 -20 -27 -53 11 -65 27 -8 36 -7 49 8 24 27 16 64
-15 67 -14 2 -34 -3 -45 -10z m45 -11 c0 -2 -9 -6 -20 -9 -11 -3 -18 -1 -14 4
5 9 34 13 34 5z m-3 -42 c-3 -3 -12 -4 -19 -1 -8 3 -5 6 6 6 11 1 17 -2 13 -5z"/>
<path d="M7921 7744 c0 -11 3 -14 6 -6 3 7 2 16 -1 19 -3 4 -6 -2 -5 -13z"/>
<path d="M7481 7658 c-29 -46 15 -87 78 -75 16 4 43 2 60 -3 19 -5 29 -5 26 1
-4 5 3 9 14 9 46 0 44 79 -1 81 -134 6 -167 3 -177 -13z m162 -55 c-7 -2 -21
-2 -30 0 -10 3 -4 5 12 5 17 0 24 -2 18 -5z"/>
<path d="M7923 7645 c0 -22 2 -30 4 -17 2 12 2 30 0 40 -3 9 -5 -1 -4 -23z"/>
<path d="M2559 7575 c-47 -14 -59 -23 -59 -44 0 -39 42 -49 222 -52 52 -1 92
45 69 80 -12 18 -185 30 -232 16z m211 -25 c8 -5 11 -13 6 -17 -5 -4 -11 -2
-13 5 -6 16 -219 17 -228 1 -13 -20 7 -24 125 -24 65 0 116 -3 113 -7 -2 -5
-55 -8 -117 -8 -118 0 -146 9 -132 45 4 12 27 15 118 15 62 0 120 -4 128 -10z"/>
<path d="M7922 7540 c0 -19 2 -27 5 -17 2 9 2 25 0 35 -3 9 -5 1 -5 -18z"/>
<path d="M7451 7459 c-14 -5 -40 -10 -58 -11 -22 -1 -29 -4 -21 -9 12 -8 4
-13 -14 -10 -5 0 -8 -3 -8 -9 0 -5 4 -10 9 -10 4 0 8 -10 7 -22 -1 -22 2 -23
119 -26 100 -2 126 0 154 15 19 10 37 24 39 32 3 8 0 11 -7 7 -6 -4 -11 -3
-11 3 0 5 5 12 10 14 6 3 5 4 -2 3 -7 -1 -23 3 -36 10 -13 6 -39 9 -59 7 -23
-3 -39 0 -44 9 -6 9 -9 10 -9 1 0 -7 -9 -13 -21 -13 -11 0 -17 5 -14 10 8 12
-2 12 -34 -1z m132 -26 c-13 -2 -33 -2 -45 0 -13 2 -3 4 22 4 25 0 35 -2 23
-4z"/>
<path d="M7921 7454 c0 -11 3 -14 6 -6 3 7 2 16 -1 19 -3 4 -6 -2 -5 -13z"/>
<path d="M2783 7445 c0 -8 4 -12 9 -9 5 3 6 10 3 15 -9 13 -12 11 -12 -6z"/>
<path d="M2693 7295 c-16 -11 -22 -25 -21 -50 1 -32 24 -56 37 -38 3 4 35 9
71 10 126 3 126 3 128 39 3 44 -18 54 -115 54 -54 0 -85 -5 -100 -15z m201
-22 c4 -9 2 -21 -3 -26 -8 -8 -116 -13 -183 -8 -18 1 -25 31 -11 44 3 4 48 7
99 7 76 0 93 -3 98 -17z"/>
<path d="M7922 7275 c0 -16 2 -22 5 -12 2 9 2 23 0 30 -3 6 -5 -1 -5 -18z"/>
<path d="M2640 7225 c0 -8 4 -15 8 -15 5 0 9 7 9 15 0 8 -4 15 -9 15 -4 0 -8
-7 -8 -15z"/>
<path d="M7922 7210 c0 -14 2 -19 5 -12 2 6 2 18 0 25 -3 6 -5 1 -5 -13z"/>
<path d="M6638 7063 c6 -2 18 -2 25 0 6 3 1 5 -13 5 -14 0 -19 -2 -12 -5z"/>
<path d="M6326 7052 c-2 -4 4 -8 15 -8 10 0 19 4 19 8 0 4 -6 8 -14 8 -8 0
-17 -4 -20 -8z"/>
<path d="M6425 7050 c27 -11 45 -12 45 -2 0 5 -15 9 -32 9 -27 1 -29 -1 -13
-7z"/>
<path d="M2666 7033 c-4 -5 -29 -8 -56 -9 -54 0 -100 -25 -100 -53 0 -11 -5
-22 -10 -24 -6 -3 -5 -4 2 -3 7 1 19 -3 26 -11 9 -9 40 -13 92 -13 43 0 82 -4
85 -10 3 -5 19 -10 36 -10 16 0 29 5 29 10 0 6 12 10 26 10 14 0 37 9 51 20
14 11 20 20 13 20 -7 0 -10 8 -7 20 4 16 -1 21 -29 26 -19 3 -37 10 -40 16 -3
5 -26 6 -51 2 -33 -5 -44 -4 -39 5 8 12 -16 16 -28 4z m171 -49 c15 -38 -9
-49 -118 -52 -57 -2 -123 0 -146 3 -36 5 -43 10 -43 29 0 12 3 26 7 29 3 4 71
7 150 7 124 0 144 -2 150 -16z m-84 -71 c-7 -2 -21 -2 -30 0 -10 3 -4 5 12 5
17 0 24 -2 18 -5z"/>
<path d="M6660 7024 c31 -17 41 -17 35 -1 -3 6 -17 13 -32 14 l-28 1 25 -14z"/>
<path d="M6717 7028 c-7 -5 6 -7 30 -6 23 1 40 5 37 10 -6 9 -50 7 -67 -4z"/>
<path d="M6860 7030 c0 -5 5 -10 11 -10 5 0 7 5 4 10 -3 6 -8 10 -11 10 -2 0
-4 -4 -4 -10z"/>
<path d="M7231 7028 c-1 -16 -11 -22 -32 -20 -3 1 -6 -18 -5 -42 0 -31 4 -42
13 -39 7 3 26 -2 43 -10 17 -9 28 -11 25 -6 -4 5 21 9 59 9 46 0 66 -4 66 -12
0 -9 3 -9 9 1 8 13 12 13 27 0 10 -8 15 -9 11 -2 -6 9 7 12 50 11 89 -2 133
25 118 72 -9 28 -28 31 -206 31 -125 -1 -169 2 -172 12 -3 7 -6 5 -6 -5z m369
-44 c11 -12 11 -18 -1 -29 -11 -11 -55 -14 -190 -16 -97 -1 -181 1 -187 5 -13
8 -16 39 -5 49 3 4 88 7 188 7 153 0 185 -3 195 -16z"/>
<path d="M7278 7033 c7 -3 16 -2 19 1 4 3 -2 6 -13 5 -11 0 -14 -3 -6 -6z"/>
<path d="M7318 7033 c7 -3 16 -2 19 1 4 3 -2 6 -13 5 -11 0 -14 -3 -6 -6z"/>
<path d="M3028 7023 c7 -3 16 -2 19 1 4 3 -2 6 -13 5 -11 0 -14 -3 -6 -6z"/>
<path d="M3068 7023 c7 -3 16 -2 19 1 4 3 -2 6 -13 5 -11 0 -14 -3 -6 -6z"/>
<path d="M3148 7023 c6 -2 18 -2 25 0 6 3 1 5 -13 5 -14 0 -19 -2 -12 -5z"/>
<path d="M3233 7023 c9 -2 25 -2 35 0 9 3 1 5 -18 5 -19 0 -27 -2 -17 -5z"/>
<path d="M3308 7023 c7 -3 16 -2 19 1 4 3 -2 6 -13 5 -11 0 -14 -3 -6 -6z"/>
<path d="M3385 7020 c3 -5 8 -10 11 -10 2 0 4 5 4 10 0 6 -5 10 -11 10 -5 0
-7 -4 -4 -10z"/>
<path d="M6828 7023 c7 -3 16 -2 19 1 4 3 -2 6 -13 5 -11 0 -14 -3 -6 -6z"/>
<path d="M6918 7023 c12 -2 30 -2 40 0 9 3 -1 5 -23 4 -22 0 -30 -2 -17 -4z"/>
<path d="M6993 7023 c9 -2 25 -2 35 0 9 3 1 5 -18 5 -19 0 -27 -2 -17 -5z"/>
<path d="M7070 7019 c0 -5 -82 -10 -181 -11 -171 -3 -182 -4 -195 -24 -11 -16
-12 -24 -1 -37 18 -25 337 -36 372 -13 20 13 44 73 24 61 -4 -3 -10 -1 -13 4
-4 5 4 11 16 13 l23 3 -22 7 c-13 3 -23 2 -23 -3z"/>
<path d="M3408 7014 c-4 -3 -94 -5 -202 -4 -123 0 -203 -3 -216 -10 -23 -12
-25 -37 -6 -62 12 -16 34 -18 198 -18 172 0 186 1 203 20 10 11 28 20 39 20
15 0 17 3 8 9 -7 4 -14 18 -15 29 -1 24 -1 24 -9 16z m-381 -30 c-3 -3 -12 -4
-19 -1 -8 3 -5 6 6 6 11 1 17 -2 13 -5z"/>
<path d="M7922 6940 c0 -14 2 -19 5 -12 2 6 2 18 0 25 -3 6 -5 1 -5 -13z"/>
<path d="M2655 6899 c18 -5 33 -5 39 1 7 7 -4 10 -29 9 -40 -1 -40 -1 -10 -10z"/>
<path d="M7308 6903 c7 -3 16 -2 19 1 4 3 -2 6 -13 5 -11 0 -14 -3 -6 -6z"/>
<path d="M3521 6828 c-12 -32 14 -46 40 -22 19 17 19 19 3 31 -25 18 -33 16
-43 -9z"/>
<path d="M7921 6824 c0 -11 3 -14 6 -6 3 7 2 16 -1 19 -3 4 -6 -2 -5 -13z"/>
<path d="M6870 6797 c-25 -5 -51 -14 -57 -19 -18 -14 -16 -43 3 -62 13 -14 52
-16 269 -16 217 0 256 2 269 16 20 19 20 35 2 60 -13 17 -31 19 -184 24 -94 3
-186 2 -206 -1 -19 -3 -39 -3 -43 1 -4 4 -28 3 -53 -3z m468 -29 c17 -17 15
-45 -4 -52 -28 -11 -474 -7 -495 4 -19 10 -26 40 -12 53 12 13 498 8 511 -5z"/>
<path d="M2588 6793 c12 -2 30 -2 40 0 9 3 -1 5 -23 4 -22 0 -30 -2 -17 -4z"/>
<path d="M2688 6793 c7 -3 16 -2 19 1 4 3 -2 6 -13 5 -11 0 -14 -3 -6 -6z"/>
<path d="M2720 6790 c0 -6 -38 -10 -94 -10 -96 0 -126 -11 -126 -44 0 -33 34
-45 138 -47 56 -1 102 -5 102 -10 0 -5 5 -9 11 -9 5 0 7 5 4 10 -3 6 5 10 19
10 13 0 27 -6 30 -12 4 -9 5 -8 4 2 -1 8 2 23 7 33 13 30 -10 67 -42 68 l-28
1 25 8 c22 7 21 8 -12 9 -21 1 -38 -3 -38 -9z m-163 -76 c-3 -3 -12 -4 -19 -1
-8 3 -5 6 6 6 11 1 17 -2 13 -5z"/>
<path d="M3089 6793 c-8 -1 -41 -5 -74 -9 -33 -4 -55 -8 -50 -10 6 -2 9 -24 8
-49 -1 -25 3 -45 8 -45 6 0 8 3 6 8 -3 4 80 6 185 4 161 -3 193 -1 214 13 19
12 23 21 18 38 -13 45 -25 49 -166 50 -74 1 -141 1 -149 0z m289 -27 c7 -4 12
-18 12 -30 0 -22 -5 -23 -87 -29 -155 -10 -290 -4 -308 14 -31 30 -9 48 63 51
118 5 308 2 320 -6z"/>
<path d="M6435 6790 c18 -8 17 -9 -8 -9 -19 -1 -31 -8 -39 -25 -20 -46 -6 -56
80 -56 82 0 105 9 116 46 8 25 -12 33 -84 35 -38 1 -41 2 -20 9 21 7 17 8 -20
8 -34 1 -40 -2 -25 -8z"/>
<path d="M6528 6793 c7 -3 16 -2 19 1 4 3 -2 6 -13 5 -11 0 -14 -3 -6 -6z"/>
<path d="M6652 6779 c-38 -30 -23 -79 24 -79 12 0 27 6 33 14 13 15 12 78 -1
70 -4 -3 -8 -1 -8 4 0 14 -25 10 -48 -9z m46 -35 c4 -29 -25 -39 -38 -13 -6
10 -8 24 -5 30 11 17 40 5 43 -17z"/>
<path d="M7489 6788 c-22 -8 -26 -57 -7 -76 7 -7 41 -12 81 -12 43 0 66 -4 62
-10 -3 -5 1 -10 10 -10 9 0 13 5 10 10 -3 6 3 10 13 10 50 0 53 79 4 87 -48 7
-154 8 -173 1z m149 -25 c-15 -2 -42 -2 -60 0 -18 2 -6 4 27 4 33 0 48 -2 33
-4z"/>
<path d="M7921 6784 c0 -11 3 -14 6 -6 3 7 2 16 -1 19 -3 4 -6 -2 -5 -13z"/>
<path d="M7921 6744 c0 -11 3 -14 6 -6 3 7 2 16 -1 19 -3 4 -6 -2 -5 -13z"/>
<path d="M3830 6698 c0 -39 13 -50 37 -33 11 8 23 24 26 35 4 17 0 20 -29 20
-29 0 -34 -4 -34 -22z"/>
<path d="M6886 6678 c3 -5 10 -6 15 -3 13 9 11 12 -6 12 -8 0 -12 -4 -9 -9z"/>
<path d="M6980 6686 c0 -7 40 -14 44 -7 3 4 -6 8 -20 9 -13 1 -24 0 -24 -2z"/>
<path d="M7308 6683 c7 -3 16 -2 19 1 4 3 -2 6 -13 5 -11 0 -14 -3 -6 -6z"/>
<path d="M7548 6683 c7 -3 16 -2 19 1 4 3 -2 6 -13 5 -11 0 -14 -3 -6 -6z"/>
<path d="M2570 6672 c0 -4 16 -6 35 -4 19 2 35 6 35 8 0 2 -16 4 -35 4 -19 0
-35 -4 -35 -8z"/>
<path d="M2678 6673 c7 -3 16 -2 19 1 4 3 -2 6 -13 5 -11 0 -14 -3 -6 -6z"/>
<path d="M3031 6666 c-9 -11 -9 -16 0 -22 8 -4 9 -3 5 4 -4 7 4 14 21 18 46
10 49 12 17 13 -17 1 -37 -5 -43 -13z"/>
<path d="M3110 6670 c0 -6 16 -8 42 -4 29 5 39 4 34 -4 -5 -8 -2 -10 8 -6 9 3
13 10 10 15 -7 12 -94 11 -94 -1z"/>
<path d="M3278 6673 c7 -3 16 -2 19 1 4 3 -2 6 -13 5 -11 0 -14 -3 -6 -6z"/>
<path d="M3318 6673 c7 -3 16 -2 19 1 4 3 -2 6 -13 5 -11 0 -14 -3 -6 -6z"/>
<path d="M7921 6664 c0 -11 3 -14 6 -6 3 7 2 16 -1 19 -3 4 -6 -2 -5 -13z"/>
<path d="M2770 6619 c0 -5 5 -7 10 -4 6 3 10 8 10 11 0 2 -4 4 -10 4 -5 0 -10
-5 -10 -11z"/>
<path d="M2696 6588 c2 -4 0 -9 -6 -13 -16 -10 -11 -54 8 -63 9 -5 37 -12 62
-15 25 -3 36 -3 26 2 -18 7 -18 8 -3 14 21 8 23 56 2 63 -8 4 -13 9 -11 13 2
3 -15 6 -39 6 -24 0 -41 -3 -39 -7z"/>
<path d="M7168 6588 c-16 -5 -28 -14 -28 -19 0 -6 -5 -7 -11 -3 -8 5 -8 1 0
-14 6 -11 9 -27 8 -34 -2 -7 -2 -10 0 -6 3 4 15 3 28 -2 30 -11 209 -15 225
-5 9 5 11 4 6 -3 -4 -7 -1 -12 8 -12 9 0 16 4 16 10 0 5 22 8 53 5 80 -6 116
3 123 32 4 16 0 30 -11 43 -17 19 -32 20 -204 19 -102 0 -198 -5 -213 -11z
m102 -14 c-34 -7 -108 -8 -103 -1 2 4 30 6 61 6 31 -1 50 -3 42 -5z m304 -2
c3 -5 -8 -6 -25 -4 -16 2 -29 6 -29 8 0 8 49 4 54 -4z m-343 -50 c-30 -2 -58
0 -62 5 -4 4 20 6 54 3 l62 -5 -54 -3z m197 1 c-10 -2 -28 -2 -40 0 -13 2 -5
4 17 4 22 1 32 -1 23 -4z m119 1 c-3 -3 -12 -4 -19 -1 -8 3 -5 6 6 6 11 1 17
-2 13 -5z"/>
<path d="M2868 6583 c-21 -5 -27 -23 -17 -49 6 -18 18 -22 71 -27 128 -12 168
-14 168 -5 0 4 7 8 15 8 8 0 15 -5 15 -12 0 -9 3 -9 12 0 7 7 20 12 29 12 22
0 32 15 34 51 l2 27 -156 0 c-86 0 -163 -2 -173 -5z m279 -59 c-3 -3 -12 -4
-19 -1 -8 3 -5 6 6 6 11 1 17 -2 13 -5z"/>
<path d="M7922 6545 c0 -16 2 -22 5 -12 2 9 2 23 0 30 -3 6 -5 -1 -5 -18z"/>
<path d="M6568 6443 c7 -3 16 -2 19 1 4 3 -2 6 -13 5 -11 0 -14 -3 -6 -6z"/>
<path d="M6638 6443 c6 -2 18 -2 25 0 6 3 1 5 -13 5 -14 0 -19 -2 -12 -5z"/>
<path d="M6728 6443 c7 -3 16 -2 19 1 4 3 -2 6 -13 5 -11 0 -14 -3 -6 -6z"/>
<path d="M6875 6440 c4 -7 -65 -10 -199 -10 -193 0 -207 -1 -226 -20 -25 -25
-25 -42 -1 -64 16 -15 55 -16 383 -16 l364 1 2 34 c4 56 -20 65 -178 65 -91 0
-130 3 -120 10 12 8 10 10 -8 10 -13 0 -20 -4 -17 -10z m293 -39 c8 -5 12 -17
10 -27 -3 -18 -19 -19 -351 -19 l-347 0 346 2 c321 3 345 4 342 21 -2 9 -16
20 -33 23 -27 6 -28 7 -5 8 14 0 31 -3 38 -8z"/>
<path d="M2990 6430 c-56 -7 -66 -13 -72 -45 -11 -54 -1 -55 429 -55 l393 0
12 26 c15 33 2 55 -40 66 -35 9 -653 16 -722 8z m745 -70 c-3 -5 -12 -10 -18
-10 -7 0 -6 4 3 10 19 12 23 12 15 0z"/>
<path d="M4165 6290 c-1 -16 3 -30 8 -30 5 0 7 7 4 15 -4 8 -2 17 4 20 5 4 7
11 4 16 -11 18 -20 9 -20 -21z"/>
<path d="M6056 6275 c-3 -8 0 -17 6 -21 6 -4 8 -3 4 4 -3 5 -1 12 6 14 8 3 9
6 1 11 -6 4 -13 0 -17 -8z"/>
<path d="M4205 6250 c-3 -5 1 -10 10 -10 9 0 13 5 10 10 -3 6 -8 10 -10 10 -2
0 -7 -4 -10 -10z"/>
<path d="M4478 6098 c11 -11 52 -22 52 -14 0 2 -15 9 -32 15 -26 9 -30 9 -20
-1z"/>
<path d="M5726 6091 c-4 -5 3 -7 14 -4 23 6 26 13 6 13 -8 0 -17 -4 -20 -9z"/>
<path d="M5591 6061 c-7 -5 -9 -11 -5 -14 5 -3 15 1 22 9 14 16 5 18 -17 5z"/>
<path d="M4634 6052 c9 -8 56 -11 51 -2 -2 4 -16 8 -30 8 -14 0 -24 -3 -21 -6z"/>
<path d="M5506 6052 c-2 -4 -1 -14 5 -22 7 -12 9 -10 9 8 0 23 -5 28 -14 14z"/>
<path d="M5535 6050 c3 -5 12 -7 20 -3 21 7 19 13 -6 13 -11 0 -18 -4 -14 -10z"/>
<path d="M4720 6035 c0 -8 4 -15 9 -15 5 0 11 7 15 15 3 9 0 15 -9 15 -8 0
-15 -7 -15 -15z"/>
<path d="M5440 6034 c0 -12 4 -14 13 -7 6 6 19 13 27 16 9 3 3 6 -12 6 -20 1
-28 -4 -28 -15z"/>
<path d="M4800 6029 c0 -6 6 -9 14 -6 7 3 17 2 22 -3 5 -5 18 -2 28 6 18 13
17 14 -22 14 -24 0 -42 -5 -42 -11z"/>
<path d="M5077 6034 c-3 -3 -31 -6 -63 -5 -31 0 -54 -2 -51 -5 6 -7 127 -7
134 -1 2 3 0 8 -5 11 -5 3 -12 3 -15 0z"/>
<path d="M5118 6028 c14 -13 75 -13 78 0 1 7 0 8 -3 2 -2 -5 -10 -7 -16 -3
-14 8 -68 10 -59 1z"/>
<path d="M5240 6031 c0 -5 7 -12 16 -15 8 -3 13 -2 10 3 -3 4 22 6 55 5 33 -2
57 0 55 5 -7 10 -136 12 -136 2z"/>
<path d="M5478 6023 c7 -3 16 -2 19 1 4 3 -2 6 -13 5 -11 0 -14 -3 -6 -6z"/>
<path d="M2700 5910 c0 -5 5 -10 11 -10 5 0 7 5 4 10 -3 6 -8 10 -11 10 -2 0
-4 -4 -4 -10z"/>
<path d="M3180 5910 c0 -5 5 -10 11 -10 5 0 7 5 4 10 -3 6 -8 10 -11 10 -2 0
-4 -4 -4 -10z"/>
<path d="M4226 5908 c3 -5 10 -6 15 -3 13 9 11 12 -6 12 -8 0 -12 -4 -9 -9z"/>
<path d="M5100 5910 c0 -6 7 -10 15 -10 8 0 15 2 15 4 0 2 -7 6 -15 10 -8 3
-15 1 -15 -4z"/>
<path d="M5345 5910 c4 -6 11 -8 16 -5 14 9 11 15 -7 15 -8 0 -12 -5 -9 -10z"/>
<path d="M5500 5910 c0 -5 5 -10 11 -10 5 0 7 5 4 10 -3 6 -8 10 -11 10 -2 0
-4 -4 -4 -10z"/>
<path d="M5586 5908 c3 -5 10 -6 15 -3 13 9 11 12 -6 12 -8 0 -12 -4 -9 -9z"/>
<path d="M6065 5910 c-3 -5 -1 -10 4 -10 6 0 11 5 11 10 0 6 -2 10 -4 10 -3 0
-8 -4 -11 -10z"/>
<path d="M5140 5891 l-25 -7 28 -6 c19 -4 27 -1 27 8 0 8 -1 14 -2 13 -2 -1
-14 -4 -28 -8z"/>
<path d="M5232 5891 c-11 -7 -11 -9 2 -14 10 -4 16 -1 16 8 0 17 -1 17 -18 6z"/>
<path d="M5700 5893 c-40 -7 -44 -20 -5 -19 21 1 35 6 35 14 0 6 -1 11 -2 11
-2 -1 -14 -4 -28 -6z"/>
<path d="M6186 5891 c-19 -7 -19 -8 0 -13 13 -3 21 0 21 8 0 8 -1 14 -1 13 -1
0 -10 -4 -20 -8z"/>
<path d="M2828 5883 c7 -3 16 -2 19 1 4 3 -2 6 -13 5 -11 0 -14 -3 -6 -6z"/>
<path d="M4420 5886 c0 -2 7 -6 15 -10 8 -3 15 -1 15 4 0 6 -7 10 -15 10 -8 0
-15 -2 -15 -4z"/>
<path d="M4632 5882 c-8 -5 1 -8 23 -8 19 1 35 4 35 9 0 9 -42 9 -58 -1z"/>
<path d="M4708 5883 c7 -3 16 -2 19 1 4 3 -2 6 -13 5 -11 0 -14 -3 -6 -6z"/>
<path d="M5000 5878 c0 -4 6 -8 14 -8 8 0 17 4 20 8 2 4 -4 8 -15 8 -10 0 -19
-4 -19 -8z"/>
<path d="M5940 5886 c0 -2 7 -7 16 -10 8 -3 12 -2 9 4 -6 10 -25 14 -25 6z"/>
<path d="M6075 5880 c-3 -6 1 -7 9 -4 18 7 21 14 7 14 -6 0 -13 -4 -16 -10z"/>
<path d="M6748 5883 c7 -3 16 -2 19 1 4 3 -2 6 -13 5 -11 0 -14 -3 -6 -6z"/>
<path d="M7315 5880 c3 -5 8 -10 11 -10 2 0 4 5 4 10 0 6 -5 10 -11 10 -5 0
-7 -4 -4 -10z"/>
<path d="M7368 5883 c7 -3 16 -2 19 1 4 3 -2 6 -13 5 -11 0 -14 -3 -6 -6z"/>
<path d="M4500 9884 c-75 -30 -140 -118 -140 -191 1 -87 66 -162 153 -178 54
-9 142 12 178 42 44 37 69 93 69 155 0 62 -21 103 -76 144 -31 24 -48 29 -103
31 -36 1 -73 0 -81 -3z"/>
<path d="M5940 9836 c0 -2 8 -10 18 -17 15 -13 16 -12 3 4 -13 16 -21 21 -21
13z"/>
<path d="M5996 9751 c15 -30 30 -66 34 -80 7 -20 8 -22 9 -6 1 23 -29 91 -53
120 -9 11 -4 -4 10 -34z"/>
<path d="M6042 9615 c0 -16 2 -22 5 -12 2 9 2 23 0 30 -3 6 -5 -1 -5 -18z"/>
<path d="M6050 9400 c-2 -102 -5 -164 -7 -137 -3 34 -8 47 -20 47 -13 0 -13
-3 -3 -15 10 -12 9 -22 -3 -53 -14 -35 -14 -39 1 -49 15 -10 14 -11 -5 -8 -20
3 -23 0 -23 -31 0 -23 -5 -34 -14 -34 -15 0 -31 -34 -22 -48 10 -16 -13 -35
-43 -34 -17 0 -31 -3 -31 -8 0 -4 -11 -10 -24 -12 -33 -7 -23 20 13 34 16 6
21 12 13 15 -7 3 -30 -6 -50 -20 -20 -14 -68 -38 -107 -53 -81 -32 -125 -54
-109 -54 6 0 29 7 50 16 28 12 43 13 55 6 13 -8 16 -7 15 5 -1 20 54 37 69 22
7 -7 4 -8 -9 -3 -15 6 -17 4 -11 -6 5 -8 4 -11 -1 -7 -6 3 -16 2 -24 -4 -11
-6 -2 -9 29 -9 24 0 41 -3 37 -7 -8 -8 -34 -14 -58 -14 -10 0 -18 -4 -18 -9 0
-5 -7 -6 -17 -3 -11 4 -14 3 -9 -5 4 -7 1 -12 -8 -12 -9 0 -16 -6 -16 -13 0
-8 -15 -13 -41 -14 -41 -2 -83 -28 -73 -44 3 -5 -2 -9 -10 -9 -9 0 -16 -5 -16
-11 0 -7 -9 -9 -22 -6 -13 3 -32 -1 -42 -8 -10 -8 -23 -12 -28 -9 -5 3 -7 0
-6 -8 2 -8 -6 -13 -19 -12 -13 1 -20 -3 -17 -7 3 -5 -3 -9 -13 -9 -10 0 -14
-4 -8 -8 6 -4 11 -13 13 -21 3 -12 1 -12 -13 -1 -15 12 -19 11 -35 -10 -10
-14 -22 -21 -26 -17 -4 4 -13 2 -21 -4 -7 -6 -13 -9 -13 -5 0 3 -12 -7 -27
-22 -18 -17 -39 -27 -58 -27 -16 0 -36 -4 -44 -10 -11 -7 -13 -7 -7 3 4 6 2
12 -3 12 -10 0 -15 -14 -12 -32 0 -5 -2 -7 -7 -7 -4 1 -9 0 -12 -1 -3 -1 -15
-3 -27 -4 -15 -2 -20 2 -16 13 2 9 -2 6 -9 -5 -7 -12 -21 -20 -30 -19 -9 2
-19 -4 -22 -12 -4 -9 -13 -13 -22 -9 -23 9 -36 -3 -21 -19 9 -10 16 -10 27 -1
13 10 13 9 1 -7 -11 -14 -17 -15 -28 -5 -11 9 -16 9 -22 -1 -4 -6 -17 -13 -28
-14 -12 0 -19 -6 -16 -12 2 -7 -3 -12 -12 -12 -8 0 -15 4 -15 9 0 5 -6 3 -14
-4 -8 -7 -13 -17 -13 -23 1 -5 -7 -10 -18 -10 -12 0 -20 -7 -19 -16 1 -11 -6
-15 -25 -12 -20 4 -23 2 -11 -6 10 -7 11 -11 3 -11 -7 0 -13 -7 -13 -15 0 -8
-9 -15 -21 -15 -12 0 -17 4 -13 11 5 8 1 8 -14 0 -11 -6 -39 -11 -61 -11 -39
0 -41 -2 -41 -30 l0 -31 -127 4 c-79 2 -111 1 -83 -4 74 -12 1074 -12 1162 1
236 34 399 168 453 375 18 70 30 612 17 765 l-9 105 -3 -185z m-3 -267 c-2
-16 -4 -3 -4 27 0 30 2 43 4 28 2 -16 2 -40 0 -55z m0 -145 c-3 -7 -5 -2 -5
12 0 14 2 19 5 13 2 -7 2 -19 0 -25z"/>
<path d="M6025 9330 c-3 -5 -1 -10 4 -10 6 0 11 5 11 10 0 6 -2 10 -4 10 -3 0
-8 -4 -11 -10z"/>
<path d="M5580 8930 c-9 -6 -10 -10 -3 -10 6 0 15 5 18 10 8 12 4 12 -15 0z"/>
<path d="M5467 8883 c-37 -14 -66 -28 -63 -30 6 -6 125 38 132 48 7 11 11 12
-69 -18z"/>
<path d="M5120 8619 c0 -5 5 -7 10 -4 6 3 10 8 10 11 0 2 -4 4 -10 4 -5 0 -10
-5 -10 -11z"/>
<path d="M4208 8353 c34 -2 88 -2 120 0 31 2 3 3 -63 3 -66 0 -92 -1 -57 -3z"/>
<path d="M4073 8343 c9 -2 25 -2 35 0 9 3 1 5 -18 5 -19 0 -27 -2 -17 -5z"/>
<path d="M4008 8333 c6 -2 18 -2 25 0 6 3 1 5 -13 5 -14 0 -19 -2 -12 -5z"/>
<path d="M3953 8323 c9 -2 23 -2 30 0 6 3 -1 5 -18 5 -16 0 -22 -2 -12 -5z"/>
<path d="M4315 8283 c-107 -6 -390 -34 -395 -40 -3 -3 31 -3 75 1 212 16 259
18 252 10 -4 -4 -24 -7 -45 -7 -31 1 -33 0 -12 -6 l25 -7 -25 -7 c-13 -3 -22
-8 -19 -11 3 -3 36 6 74 20 39 14 102 32 140 39 73 13 59 15 -70 8z"/>
<path d="M3863 8233 c9 -2 25 -2 35 0 9 3 1 5 -18 5 -19 0 -27 -2 -17 -5z"/>
<path d="M4113 8186 c-23 -14 -57 -36 -76 -50 -19 -14 -36 -23 -39 -20 -9 8
-78 -64 -78 -81 0 -19 -65 -137 -72 -130 -2 3 -4 -5 -4 -18 1 -12 -4 -21 -11
-19 -7 1 -13 -5 -13 -13 0 -8 -8 -15 -18 -15 -10 0 -24 -11 -31 -24 -27 -50
-302 -219 -396 -243 -33 -8 -63 -20 -67 -27 -5 -7 -8 -6 -8 4 0 13 -1 13 -10
0 -12 -18 -13 -30 -2 -29 24 4 62 -2 62 -11 0 -5 -7 -7 -15 -4 -10 4 -13 0
-10 -16 4 -19 1 -21 -25 -15 -24 5 -29 4 -24 -8 3 -9 -3 -16 -15 -20 -12 -3
-21 -10 -21 -17 0 -6 5 -8 10 -5 7 4 8 -3 4 -21 -6 -23 -4 -26 10 -21 11 5 16
1 16 -14 0 -13 4 -18 12 -13 6 4 8 3 5 -3 -8 -13 89 -65 166 -88 31 -10 55
-20 53 -22 -8 -8 -139 39 -193 69 -75 42 -154 152 -209 288 -22 56 -27 87 -34
230 -4 91 -6 210 -5 265 3 98 3 99 -5 25 -4 -41 -8 -107 -9 -147 -1 -53 -7
-82 -22 -110 -22 -39 -31 -67 -31 -96 1 -11 -4 -15 -11 -10 -8 4 -8 1 1 -9 9
-11 10 -18 2 -23 -5 -3 -10 -18 -10 -32 0 -15 -3 -23 -7 -19 -5 4 -11 116 -14
249 l-5 242 -2 -234 c-2 -211 0 -243 19 -315 55 -207 154 -344 303 -416 111
-54 201 -70 391 -70 l155 0 0 303 c-1 166 3 325 9 352 34 171 112 277 301 407
36 25 21 21 -27 -6z m-113 -80 c0 -2 -8 -10 -17 -17 -16 -13 -17 -12 -4 4 13
16 21 21 21 13z"/>
<path d="M3679 11615 c-32 -17 -54 -66 -45 -100 7 -28 63 -120 181 -300 73
-111 109 -174 103 -180 -2 -2 -43 -30 -93 -62 -95 -63 -186 -133 -247 -191
l-36 -35 -374 -2 c-227 -2 -389 -7 -413 -14 -40 -10 -40 -10 13 -5 67 6 741 6
752 -1 4 -2 16 5 26 17 32 36 197 164 287 223 48 31 89 60 93 66 8 13 -46 115
-104 198 -86 122 -182 285 -182 308 0 14 13 38 29 54 42 42 84 40 127 -7 19
-19 34 -40 34 -46 0 -13 233 -419 237 -414 6 6 -31 76 -97 186 -31 52 -78 137
-104 188 -27 51 -60 101 -73 112 -30 23 -77 25 -114 5z"/>
<path d="M6120 11075 c14 -8 30 -14 35 -14 6 0 -1 6 -15 14 -14 8 -29 14 -35
14 -5 0 1 -6 15 -14z"/>
<path d="M2678 10713 c7 -3 16 -2 19 1 4 3 -2 6 -13 5 -11 0 -14 -3 -6 -6z"/>
<path d="M4229 10700 c-44 -13 -88 -51 -109 -95 -54 -112 9 -238 133 -266 110
-24 203 37 228 148 10 45 10 59 -5 98 -35 90 -151 144 -247 115z m49 -59 c17
-11 12 -41 -9 -54 -24 -15 -69 0 -69 23 0 31 48 50 78 31z"/>
<path d="M2421 10620 c-41 -21 -79 -44 -85 -50 -9 -9 158 75 173 87 18 14 -27
-4 -88 -37z"/>
<path d="M7568 10653 c7 -3 16 -2 19 1 4 3 -2 6 -13 5 -11 0 -14 -3 -6 -6z"/>
<path d="M3607 10561 c-48 -49 -101 -114 -120 -143 -65 -103 -79 -128 -70
-128 4 0 21 24 37 53 46 82 94 146 175 230 41 42 72 77 69 77 -3 0 -44 -40
-91 -89z"/>
<path d="M2242 10494 c-72 -66 -149 -157 -171 -204 -10 -21 -9 -22 1 -6 57 82
117 153 180 209 40 37 71 67 68 67 -3 0 -38 -30 -78 -66z"/>
<path d="M2025 10209 c-9 -17 -15 -33 -13 -35 3 -2 12 12 21 31 21 43 13 47
-8 4z"/>
<path d="M1996 10145 c-9 -26 -7 -32 5 -12 6 10 9 21 6 23 -2 3 -7 -2 -11 -11z"/>
<path d="M1975 10080 c-4 -17 -5 -34 -2 -36 2 -3 7 10 11 27 8 42 0 50 -9 9z"/>
<path d="M1962 10010 c0 -14 2 -19 5 -12 2 6 2 18 0 25 -3 6 -5 1 -5 -13z"/>
<path d="M1952 9925 c0 -16 2 -22 5 -12 2 9 2 23 0 30 -3 6 -5 -1 -5 -18z"/>
<path d="M1955 8110 c0 -954 1 -1345 2 -867 2 477 2 1257 0 1735 -1 477 -2 86
-2 -868z"/>
<path d="M8212 9810 c0 -19 2 -27 5 -17 2 9 2 25 0 35 -3 9 -5 1 -5 -18z"/>
<path d="M8211 9714 c0 -11 3 -14 6 -6 3 7 2 16 -1 19 -3 4 -6 -2 -5 -13z"/>
<path d="M8132 9650 c0 -19 2 -27 5 -17 2 9 2 25 0 35 -3 9 -5 1 -5 -18z"/>
<path d="M8133 9555 c0 -33 2 -45 4 -27 2 18 2 45 0 60 -2 15 -4 0 -4 -33z"/>
<path d="M8214 9450 c0 -85 2 -120 3 -77 2 42 2 112 0 155 -1 42 -3 7 -3 -78z"/>
<path d="M8131 9474 c0 -11 3 -14 6 -6 3 7 2 16 -1 19 -3 4 -6 -2 -5 -13z"/>
<path d="M8133 9390 c0 -30 2 -43 4 -27 2 15 2 39 0 55 -2 15 -4 2 -4 -28z"/>
<path d="M8131 9314 c0 -11 3 -14 6 -6 3 7 2 16 -1 19 -3 4 -6 -2 -5 -13z"/>
<path d="M8133 9230 c0 -30 2 -43 4 -27 2 15 2 39 0 55 -2 15 -4 2 -4 -28z"/>
<path d="M8214 9165 c0 -66 1 -92 3 -57 2 34 2 88 0 120 -2 31 -3 3 -3 -63z"/>
<path d="M8132 9060 c0 -19 2 -27 5 -17 2 9 2 25 0 35 -3 9 -5 1 -5 -18z"/>
<path d="M8131 8994 c0 -11 3 -14 6 -6 3 7 2 16 -1 19 -3 4 -6 -2 -5 -13z"/>
<path d="M8212 8930 c0 -19 2 -27 5 -17 2 9 2 25 0 35 -3 9 -5 1 -5 -18z"/>
<path d="M8213 8835 c0 -27 2 -38 4 -22 2 15 2 37 0 50 -2 12 -4 0 -4 -28z"/>
<path d="M8132 8350 c0 -14 2 -19 5 -12 2 6 2 18 0 25 -3 6 -5 1 -5 -13z"/>
<path d="M8279 5840 c-6 -264 -12 -297 -70 -412 -108 -214 -367 -366 -680
-398 -67 -6 -893 -10 -2443 -10 -2553 0 -2430 -3 -2611 56 -133 44 -234 104
-317 190 -69 71 -96 109 -140 199 -21 44 -36 69 -32 55 13 -49 83 -176 124
-225 123 -146 321 -248 553 -285 46 -7 601 -11 1702 -11 1212 -1 1633 -4 1628
-13 -5 -8 -3 -8 8 0 20 16 381 16 391 0 6 -8 8 -8 8 0 0 9 142 12 548 13 669
1 751 10 931 101 45 22 87 38 93 34 6 -4 8 -3 5 3 -4 6 7 20 25 31 48 31 145
130 185 190 85 129 105 233 101 522 l-3 205 -6 -245z"/>
<path d="M8182 5951 c-108 -197 -348 -338 -647 -381 -89 -12 -4671 -12 -4805
1 -215 20 -413 106 -560 243 l-55 51 50 -53 c28 -29 79 -74 115 -99 73 -52 95
-71 64 -54 -20 10 -22 8 -27 -22 -15 -92 -20 -112 -26 -117 -11 -8 -1 -170 15
-247 3 -18 3 -33 -1 -33 -5 0 -33 18 -64 41 l-56 41 50 -46 c58 -53 223 -138
311 -161 79 -19 90 -19 70 1 -27 27 -18 25 33 -6 47 -30 119 -49 190 -51 l36
-2 -35 -6 -35 -7 49 -7 c81 -12 4539 -9 4656 3 90 10 269 55 258 66 -3 2 -36
-3 -74 -12 -103 -22 -236 -44 -264 -43 -33 1 3 10 175 43 159 29 222 53 319
116 109 71 188 156 236 253 52 104 61 168 58 380 l-3 168 -33 -60z m28 -92 c0
-69 -3 -98 -11 -94 -6 4 -9 26 -8 49 1 22 2 55 1 71 -2 24 -4 27 -13 15 -13
-18 -9 -5 10 33 8 15 16 27 18 27 1 0 3 -45 3 -101z m-5855 -639 c14 -7 23
-15 21 -18 -3 -2 -18 4 -34 14 -21 12 -28 22 -24 33 6 15 7 15 10 0 1 -9 14
-22 27 -29z"/>
<path d="M1953 5710 c0 -30 2 -43 4 -27 2 15 2 39 0 55 -2 15 -4 2 -4 -28z"/>
<path d="M7688 5733 c7 -3 16 -2 19 1 4 3 -2 6 -13 5 -11 0 -14 -3 -6 -6z"/>
<path d="M1962 5620 c0 -14 2 -19 5 -12 2 6 2 18 0 25 -3 6 -5 1 -5 -13z"/>
<path d="M4733 5613 c9 -2 23 -2 30 0 6 3 -1 5 -18 5 -16 0 -22 -2 -12 -5z"/>
<path d="M4788 5613 c6 -2 18 -2 25 0 6 3 1 5 -13 5 -14 0 -19 -2 -12 -5z"/>
<path d="M4898 5613 c12 -2 30 -2 40 0 9 3 -1 5 -23 4 -22 0 -30 -2 -17 -4z"/>
<path d="M5053 5613 c9 -2 23 -2 30 0 6 3 -1 5 -18 5 -16 0 -22 -2 -12 -5z"/>
<path d="M5113 5613 c9 -2 25 -2 35 0 9 3 1 5 -18 5 -19 0 -27 -2 -17 -5z"/>
<path d="M5208 5613 c6 -2 18 -2 25 0 6 3 1 5 -13 5 -14 0 -19 -2 -12 -5z"/>
<path d="M5373 5613 c9 -2 23 -2 30 0 6 3 -1 5 -18 5 -16 0 -22 -2 -12 -5z"/>
<path d="M5438 5613 c12 -2 30 -2 40 0 9 3 -1 5 -23 4 -22 0 -30 -2 -17 -4z"/>
<path d="M5528 5613 c7 -3 16 -2 19 1 4 3 -2 6 -13 5 -11 0 -14 -3 -6 -6z"/>
<path d="M5698 5613 c7 -3 16 -2 19 1 4 3 -2 6 -13 5 -11 0 -14 -3 -6 -6z"/>
<path d="M6178 5613 c7 -3 16 -2 19 1 4 3 -2 6 -13 5 -11 0 -14 -3 -6 -6z"/>
<path d="M7298 5613 c7 -3 16 -2 19 1 4 3 -2 6 -13 5 -11 0 -14 -3 -6 -6z"/>
<path d="M1971 5564 c0 -11 3 -14 6 -6 3 7 2 16 -1 19 -3 4 -6 -2 -5 -13z"/>
<path d="M8295 5250 c-3 -6 1 -7 9 -4 18 7 21 14 7 14 -6 0 -13 -4 -16 -10z"/>
<path d="M8290 5220 c0 -5 5 -10 11 -10 5 0 7 5 4 10 -3 6 -8 10 -11 10 -2 0
-4 -4 -4 -10z"/>
<path d="M7854 5145 c-16 -12 -16 -14 -3 -15 9 0 22 7 29 15 16 19 0 19 -26 0z"/>
<path d="M7721 4738 c-6 -16 -5 -27 4 -37 18 -19 35 -5 35 30 0 35 -26 40 -39
7z"/>
<path d="M7840 4720 c0 -17 6 -20 31 -18 38 3 46 14 20 27 -31 17 -51 13 -51
-9z m30 0 c0 -5 -5 -10 -11 -10 -5 0 -7 5 -4 10 3 6 8 10 11 10 2 0 4 -4 4
-10z"/>
<path d="M9170 4465 c-10 -12 -10 -15 2 -15 8 0 15 7 15 15 0 8 -1 15 -2 15
-2 0 -8 -7 -15 -15z"/>
<path d="M9235 4460 c3 -4 14 -10 25 -13 11 -3 18 -2 15 3 -3 4 -14 10 -25 13
-11 3 -18 2 -15 -3z"/>
<path d="M9390 4180 c0 -5 5 -10 10 -10 6 0 10 5 10 10 0 6 -4 10 -10 10 -5 0
-10 -4 -10 -10z"/>
<path d="M180 3986 c0 -2 7 -7 16 -10 8 -3 12 -2 9 4 -6 10 -25 14 -25 6z"/>
<path d="M9338 1343 c7 -3 16 -2 19 1 4 3 -2 6 -13 5 -11 0 -14 -3 -6 -6z"/>
<path d="M3716 1098 c3 -5 10 -6 15 -3 13 9 11 12 -6 12 -8 0 -12 -4 -9 -9z"/>
<path d="M1908 873 c7 -3 16 -2 19 1 4 3 -2 6 -13 5 -11 0 -14 -3 -6 -6z"/>
<path d="M2868 873 c6 -2 18 -2 25 0 6 3 1 5 -13 5 -14 0 -19 -2 -12 -5z"/>
<path d="M2960 869 c0 -5 5 -7 10 -4 6 3 10 8 10 11 0 2 -4 4 -10 4 -5 0 -10
-5 -10 -11z"/>
<path d="M3188 873 c7 -3 16 -2 19 1 4 3 -2 6 -13 5 -11 0 -14 -3 -6 -6z"/>
<path d="M5348 873 c7 -3 16 -2 19 1 4 3 -2 6 -13 5 -11 0 -14 -3 -6 -6z"/>
<path d="M5918 873 c7 -3 16 -2 19 1 4 3 -2 6 -13 5 -11 0 -14 -3 -6 -6z"/>
<path d="M6155 870 c4 -6 11 -8 16 -5 14 9 11 15 -7 15 -8 0 -12 -5 -9 -10z"/>
<path d="M7278 873 c7 -3 16 -2 19 1 4 3 -2 6 -13 5 -11 0 -14 -3 -6 -6z"/>
<path d="M7758 873 c7 -3 16 -2 19 1 4 3 -2 6 -13 5 -11 0 -14 -3 -6 -6z"/>
<path d="M7816 871 c-3 -4 6 -6 19 -3 14 2 25 6 25 8 0 8 -39 4 -44 -5z"/>
<path d="M8795 870 c3 -5 8 -10 11 -10 2 0 4 5 4 10 0 6 -5 10 -11 10 -5 0 -7
-4 -4 -10z"/>
<path d="M8878 873 c7 -3 16 -2 19 1 4 3 -2 6 -13 5 -11 0 -14 -3 -6 -6z"/>
<path d="M9035 870 c3 -5 8 -10 11 -10 2 0 4 5 4 10 0 6 -5 10 -11 10 -5 0 -7
-4 -4 -10z"/>
<path d="M9348 873 c6 -2 18 -2 25 0 6 3 1 5 -13 5 -14 0 -19 -2 -12 -5z"/>
<path d="M9440 869 c0 -5 5 -7 10 -4 6 3 10 8 10 11 0 2 -4 4 -10 4 -5 0 -10
-5 -10 -11z"/>
<path d="M9418 833 c7 -3 16 -2 19 1 4 3 -2 6 -13 5 -11 0 -14 -3 -6 -6z"/>
<path d="M2433 335 c0 -8 4 -12 9 -9 5 3 6 10 3 15 -9 13 -12 11 -12 -6z"/>
<path d="M8193 335 c0 -8 4 -12 9 -9 5 3 6 10 3 15 -9 13 -12 11 -12 -6z"/>
<path d="M9873 335 c0 -8 4 -12 9 -9 5 3 6 10 3 15 -9 13 -12 11 -12 -6z"/>
<path d="M2913 135 c0 -8 4 -12 9 -9 5 3 6 10 3 15 -9 13 -12 11 -12 -6z"/>
</g>
</svg>
